<?xml version="1.0" encoding="utf-8"?>
<!-- Generator: Adobe Illustrator 26.1.0, SVG Export Plug-In . SVG Version: 6.00 Build 0)  -->
<svg version="1.1" id="Layer_1" xmlns="http://www.w3.org/2000/svg" xmlns:xlink="http://www.w3.org/1999/xlink" x="0px" y="0px"
	 viewBox="0 0 718.12 288.29" style="enable-background:new 0 0 718.12 288.29;" xml:space="preserve">
<style type="text/css">
	.st0{clip-path:url(#SVGID_00000142177178619890206950000005455461985060232595_);}
	.st1{clip-path:url(#SVGID_00000120558830616135741820000010159561856285330578_);fill:#ED1C24;}
	.st2{clip-path:url(#SVGID_00000120558830616135741820000010159561856285330578_);fill:#231F20;}
	.st3{clip-path:url(#SVGID_00000120558830616135741820000010159561856285330578_);fill:#FFFFFF;}
	.st4{fill:none;}
	.st5{fill:#231F20;}
	.st6{fill:#FFFFFF;}
</style>
<g>
	<g>
		<defs>
			<rect id="SVGID_1_" x="435.02" width="283.11" height="288.29"/>
		</defs>
		<clipPath id="SVGID_00000018220248380300016430000015278164270735909529_">
			<use xlink:href="#SVGID_1_"  style="overflow:visible;"/>
		</clipPath>
		<g style="clip-path:url(#SVGID_00000018220248380300016430000015278164270735909529_);">
			<defs>
				<rect id="SVGID_00000024709622617101046830000018412632422298962086_" x="435.02" width="283.11" height="288.29"/>
			</defs>
			<clipPath id="SVGID_00000113340893966813634930000011934730452265309109_">
				<use xlink:href="#SVGID_00000024709622617101046830000018412632422298962086_"  style="overflow:visible;"/>
			</clipPath>
			<path style="clip-path:url(#SVGID_00000113340893966813634930000011934730452265309109_);fill:#ED1C24;" d="M624.86,172.52
				c0.09,0.08,0.2,0.13,0.33,0.16c-0.06-0.02-0.13-0.03-0.2-0.05C624.94,172.6,624.9,172.56,624.86,172.52"/>
			<path style="clip-path:url(#SVGID_00000113340893966813634930000011934730452265309109_);fill:#ED1C24;" d="M569.17,125.58
				c1.76,3.83,3.03,6.78-0.12,10.13c-3,3.19-6.81,5.91-9.7,9.2c-0.01,0-0.04,0.03-0.09,0.07c-0.35,0.22-1.56,1.15-2.66,2.12
				c-0.04,0.04-0.08,0.08-0.13,0.11c-1.57,1.27-3.31,2.69-3.87,3.1c-0.04,0.03-0.07,0.05-0.09,0.07c-8.65,6.15-8.89,6.03-14.48-2.96
				c-6.17-9.93-10.81-20.59-15.46-31.25c-0.54-1.22-0.85-3.68-2.54-3.12c-2.42,0.8-0.2,2.86-0.27,4.36
				c0.26,0.33,0.52,0.66,0.74,1.01c1.64,2.42,2.43,5.25,3.49,7.95c1.32,2.53,2.66,5.07,3.99,7.59c-2.65-1.61-4.08-3.9-4.95-6.54
				c-1.39-2.5-2.81-5.01-4.2-7.51c-0.07-0.12-0.13-0.24-0.2-0.37c-5.85-6.42-10.19-13.68-12.2-22.21c-0.14-0.17-0.27-0.34-0.41-0.52
				c-1.64-2.14-2.69-4.61-3.77-8.18c2.94,2.4,4.22,4.65,5.1,7.07v0.01c0.06,0.16,0.12,0.32,0.17,0.48c1.19,1.72,2.96,2.69,4.7,1.52
				c2.37-1.6-0.37-2.89-0.91-4.1c-3.89-8.65-8.25-17.05-13.83-24.77c1.26-1.74,3.19-3.07,3.9-5.95c-2.36,1.61-3.8,3.1-4.71,5.08
				c-4.1,4.23-8.2,8.48-13.08,11.84c-10.57,7.28-22.05,11.53-35.11,10c-6.5-0.75-9.7-5.3-8.44-11.71c0.36-1.8,1.11-3.52,1.68-5.27
				c3.77-6.05,7.53-12.11,11.3-18.17l10.9-10.14c25.05-18.66,52.95-31.26,83.17-38.83c4.87-1.15,10.19-0.6,14.55-3.75
				c10.98-0.74,21.9-2.98,32.97-1.3c1.91,0.44,4.04,0.13,6.57,2.33c-26.72,4.04-49.8,14.5-69.37,32.26
				c-0.11,0.07-0.23,0.15-0.35,0.23c-4.97,3.21-9.51,6.94-13.66,11.16c-2,1.05-3.46,2.59-5.53,5.59c3.38-1.54,5.14-2.8,6.5-4.62
				c4.69-3.53,9.36-7.06,14.05-10.6c0.31-0.22,0.62-0.46,0.93-0.69c7.09-4.69,6.79-4.62,8.68,4.07
				C548.8,69.54,556.65,98.32,569.17,125.58"/>
			<path style="clip-path:url(#SVGID_00000113340893966813634930000011934730452265309109_);fill:#ED1C24;" d="M556.47,147.2
				c-0.57,0.53-1.1,1.06-1.44,1.5c-0.8,0.54-1.63,1.05-2.42,1.61C553.16,149.89,554.9,148.48,556.47,147.2"/>
			<path style="clip-path:url(#SVGID_00000113340893966813634930000011934730452265309109_);fill:#231F20;" d="M675.9,107.15
				c-0.2,0.06-0.41,0.11-0.6,0.15c0.19-0.05,0.38-0.12,0.59-0.16L675.9,107.15z"/>
			<path style="clip-path:url(#SVGID_00000113340893966813634930000011934730452265309109_);fill:#ED1C24;" d="M619.86,156.16
				c0.05,1.28,0.36,6.51,0.77,9.44C620.17,162.48,619.82,159.33,619.86,156.16"/>
			<path style="clip-path:url(#SVGID_00000113340893966813634930000011934730452265309109_);fill:#ED1C24;" d="M620.75,166.07
				c0.43,0.95,2.13,4.05,3.06,5.3c-0.83-1.04-1.48-2.21-2.18-3.35C621.3,167.38,620.99,166.72,620.75,166.07"/>
			<path style="clip-path:url(#SVGID_00000113340893966813634930000011934730452265309109_);fill:#ED1C24;" d="M631.48,165.13
				c0.21-0.68,0.57-1.53,0.65-1.77c-0.05,0.21-0.09,0.42-0.14,0.63c0,0.01-0.01,0.02-0.01,0.03
				C631.84,164.39,631.62,164.76,631.48,165.13"/>
			<path style="clip-path:url(#SVGID_00000113340893966813634930000011934730452265309109_);fill:#ED1C24;" d="M646.1,147.02
				c0.18-0.08,0.37-0.16,0.53-0.22c-0.11,0.05-0.23,0.1-0.34,0.16c-0.02,0.01-0.04,0.01-0.05,0.02
				C646.19,146.99,646.15,147.01,646.1,147.02"/>
			<path style="clip-path:url(#SVGID_00000113340893966813634930000011934730452265309109_);fill:#ED1C24;" d="M649.78,164.69
				c0.54,0,5.52-2.55,7.93-4.08c-2.04,1.38-4.1,2.75-6.15,4.11C650.92,164.72,650.33,164.71,649.78,164.69"/>
			<path style="clip-path:url(#SVGID_00000113340893966813634930000011934730452265309109_);fill:#ED1C24;" d="M665.25,135.39
				c-1.43,8.44-2.28,17.03-6.71,24.67c-0.13,0.08-0.24,0.17-0.38,0.24C658.38,159.79,663.69,143.92,665.25,135.39"/>
			<path style="clip-path:url(#SVGID_00000113340893966813634930000011934730452265309109_);fill:#ED1C24;" d="M554.37,241.23
				c-0.03,0.13-0.06,0.26-0.08,0.4c-0.23,0.41-0.46,0.81-0.7,1.22C553.76,242.49,554.03,241.91,554.37,241.23"/>
			<path style="clip-path:url(#SVGID_00000113340893966813634930000011934730452265309109_);fill:#ED1C24;" d="M618.03,114.37
				c0.15,0.03-2.07,1.46-5.45,3.72c-9.56,5.14-18.12,11.62-25.55,19.65c-0.31,0.32-0.6,0.63-0.89,0.95c-1,1.11-1.81,2.45-3.53,2.55
				c-0.1-0.01-0.21-0.04-0.31-0.07c-6.71,9.56-12.73,19.52-18.09,29.89c-0.91,2.79-2.13,5.4-4.44,7.43c0.92-2.93,1.36-6.02,3.4-8.51
				c4.05-11.1,10.12-21,17.83-29.92c-0.01-0.02-0.03-0.05-0.04-0.08c-0.61-2.62,1.17-4.4,2.23-6.44c0.57-1.12,1.9-2.41,0.46-3.54
				c-1.22-0.96-2.64-0.02-3.63,0.84c-3.81,3.28-7.7,6.43-11.42,9.81c-0.92,0.83-1.8,1.73-2.73,2.56c-0.05,0.05-0.1,0.09-0.15,0.13
				c-1.51,1.34-3.16,2.47-5.3,2.82v0.01c-1.07,1.39-3.75,3.55-3.75,3.6c-0.38,1-0.88,1.87-1.49,2.65l-0.02,0.01
				c-1.95,2.53-4.89,4.08-7.4,5.97c-7.3,5.52-15.26,9.53-22.57,11.11c-1.6,0.35-3.16,0.58-4.68,0.68c3.28,0.1,4.83,0.93,6.63,6.58
				c2.81,8.83,7.39,17.09,8.67,26.42c0.16,1.16,0.67,2.27,1.25,3.31c2.15,3.88,4.07,4.08,6.74,0.56c2.44-3.23,4.48-6.75,6.82-10.05
				c0.56-0.79,1.23-1.8,2.34-1.38c0.06-0.08,0.12-0.17,0.18-0.25v0.34c0.02,1.52,0.18,2.28-0.03,2.92
				c-2.82,9.11-7.16,17.52-13.22,24.82c-4.01,4.81-8.79,4.81-14.1,1.33c-1.27-0.83-2.67-1.51-3.83-2.47
				c-5.87-4.87-12.05-9.82-12.92-17.99c-0.46-4.26-2.38-4.8-5.79-5c-10.55-0.62-20.36,1.5-29.63,6.72
				c-0.69,0.39-1.35,0.77-1.99,1.15c-0.08,0.05-0.15,0.1-0.23,0.14c-6.97,4.19-11.2,8.18-13.31,13.2c0,0.01-0.01,0.02-0.01,0.04
				c-1.82,4.38-2.02,9.54-1,16.31c0.11,0.18,0.22,0.36,0.35,0.53c2.79,4.27,6.44,7.5,10.42,10.32c0.15,0.11,0.3,0.21,0.45,0.32
				c2.44,1.7,4.99,3.25,7.55,4.8c0.44,0.25,0.88,0.52,1.31,0.78c0.34,0.2,0.66,0.4,0.99,0.6c7.76,3.88,16.26,2.62,24.03,1.59
				c17.57-2.33,30.35-12.89,39.98-27.46c10.28-15.54,16.63-33.07,25.03-49.56c4.08-8.03,4.98-17.3,10.54-24.95
				c11.51-15.82,25.69-28.44,42.39-38.43c4.81-2.11,9.64-4.21,14.46-6.33C628.72,110.05,623.03,111.19,618.03,114.37 M501.14,250.9
				c4.59-2.93,9.76-5.32,14.72-7.68c4.48-2.13,9.04-4.23,13.64-5.75C521.53,245.18,512.05,249.68,501.14,250.9"/>
			<path style="clip-path:url(#SVGID_00000113340893966813634930000011934730452265309109_);fill:#ED1C24;" d="M586.84,113
				c-1.56,0.54-2.06-0.75-2.56-1.79c-2.64-5.51-4.6-11.31-5.59-17.27c-2.42-14.61-5.73-29.26-6.2-43.96
				c-0.32-10.02-3.56-19.89-1.52-31.29c3.56,8.6,3,16.52,4.21,24.11c1.44,8.99,2.44,18.13,5.02,26.79
				c3.95,13.3,2.27,27.56,7.61,40.51C588.33,111.35,588.3,112.5,586.84,113"/>
			<path style="clip-path:url(#SVGID_00000113340893966813634930000011934730452265309109_);fill:#ED1C24;" d="M570.6,70.1
				c-0.62-1.85-1-3.75-1.29-5.68C569.68,66.12,570.12,68.07,570.6,70.1"/>
			<path style="clip-path:url(#SVGID_00000113340893966813634930000011934730452265309109_);fill:#ED1C24;" d="M576.81,92
				c-2.28-4.1-3.31-8.59-4.16-13.13c-0.68-1.94-1.32-3.91-1.39-5.98C573.16,80.79,575.47,89.39,576.81,92"/>
			<path style="clip-path:url(#SVGID_00000113340893966813634930000011934730452265309109_);fill:#ED1C24;" d="M576.77,91.48
				c-0.43-1.96-1.23-5.8-2.15-10.18C575.78,84.58,576.08,88.07,576.77,91.48"/>
			<path style="clip-path:url(#SVGID_00000113340893966813634930000011934730452265309109_);fill:#ED1C24;" d="M572.44,126.73
				c-7.82-17.59-14.3-35.07-19.44-53.04c-3.85-13.48-6.59-27.15-6.96-41.22c-0.09-3.56,5.31-9.54,8.74-9.37
				c2.26,0.11,1.69,2.27,1.94,3.48c2.29,11.03,4.28,22.12,6.62,33.15c3.65,17.28,7.7,34.48,13.71,51.13
				C580.3,119.82,580.32,119.82,572.44,126.73"/>
			<path style="clip-path:url(#SVGID_00000113340893966813634930000011934730452265309109_);fill:#231F20;" d="M529.5,237.46
				c-7.97,7.71-17.45,12.21-28.36,13.43c4.59-2.93,9.76-5.32,14.72-7.68C520.34,241.09,524.9,238.98,529.5,237.46"/>
			<path style="clip-path:url(#SVGID_00000113340893966813634930000011934730452265309109_);fill:#ED1C24;" d="M576.92,92.21
				c-0.04-0.06-0.07-0.13-0.11-0.21c-1.33-2.62-3.64-11.21-5.56-19.11c-0.21-0.93-0.43-1.83-0.64-2.73c0-0.02-0.01-0.04-0.01-0.06
				c-0.48-2.04-0.92-3.98-1.29-5.68c-0.58-2.7-1-4.8-1.15-5.83c-1.65-7.24-3.99-22.61-3.99-22.69c-1.07-3.92-0.72-7.89-0.46-12
				c0.03,0.05,0.07,0.11,0.1,0.18c1.56,2.55,1.91,5.37,2.16,8.22c1.61,8.56,3.16,20.98,3.91,26.23c0.58,2.8,2.89,13.9,4.73,22.73
				c0.01,0.01,0.01,0.02,0.01,0.03c0.92,4.38,1.72,8.21,2.15,10.18C576.82,91.77,576.88,92.01,576.92,92.21"/>
			<path style="clip-path:url(#SVGID_00000113340893966813634930000011934730452265309109_);fill:#ED1C24;" d="M665.32,134.98
				c-0.02,0.13-0.05,0.27-0.07,0.41c-1.56,8.53-6.87,24.4-7.08,24.91c0,0.01-0.01,0.01-0.01,0.01c-0.15,0.1-0.3,0.2-0.45,0.3
				c-2.41,1.53-7.39,4.08-7.93,4.08h-0.01c-4.31-0.74-5.42-2.9-4.1-7.56c0.09-0.32,0.18-0.63,0.28-0.95
				c0.07-0.21,0.15-0.43,0.22-0.64c0.02-0.05,0.04-0.1,0.06-0.15c0.08-0.22,0.16-0.44,0.25-0.65c0.27-0.71,0.59-1.38,0.95-2.04
				c0.13-0.27,0.28-0.55,0.45-0.81c0.17-0.32,0.36-0.61,0.55-0.91c0.01-0.01,0.02-0.03,0.03-0.04c0.18-0.27,0.37-0.56,0.57-0.82
				c1.07-1.49,2.33-2.84,3.74-4.08c-0.47-0.82-0.37-0.64-0.83-1.48c-0.67,0.22-1.32,0.46-1.93,0.68c-0.24,0.09-0.49,0.18-0.71,0.27
				c-0.59,0.22-1.11,0.44-1.51,0.62c-0.13,0.06-0.25,0.12-0.36,0.17c-0.27,0.14-0.44,0.26-0.47,0.34c-0.11,0.05-0.23,0.1-0.35,0.15
				c-0.16,0.06-0.35,0.14-0.53,0.22c-0.01,0-0.01,0-0.02,0.01c-0.23,0.07-0.46,0.18-0.66,0.33c-0.05,0.02-0.09,0.06-0.14,0.09h-0.01
				c-2.39,1.22-4.46,2.72-6.22,4.48c-0.11,0.09-0.22,0.17-0.33,0.27c-3.28,2.93-6.36,10.58-6.56,11.09c0,0.01-0.01,0.02-0.01,0.03
				c0,0.01-0.01,0.03-0.01,0.04c-0.08,0.24-0.44,1.09-0.65,1.77c-0.03,0.06-0.05,0.12-0.06,0.18c-0.04,0.08-0.06,0.17-0.08,0.26
				c-0.02,0.07-0.03,0.14-0.04,0.22c-0.68,6.94-1.15,8.1-6.12,6.88c-0.12-0.03-0.23-0.08-0.33-0.16c-0.01,0-0.02-0.01-0.03-0.02
				c-0.28-0.26-0.56-0.58-0.83-0.9c-0.06-0.08-0.13-0.15-0.18-0.23c-0.94-1.25-2.64-4.36-3.06-5.3c-0.03-0.06-0.05-0.11-0.07-0.17
				c-0.01-0.1-0.03-0.19-0.04-0.3c-0.42-2.93-0.72-8.16-0.77-9.44v-0.28c0.93-3.41,3.06-5.86,5.94-7.84
				c11.13-7.61,23.54-12.02,36.65-14.65C663.95,133.08,665.79,132.26,665.32,134.98"/>
			<path style="clip-path:url(#SVGID_00000113340893966813634930000011934730452265309109_);fill:#ED1C24;" d="M594.87,181.32
				c-0.06,0.04-1.41,6.82-3.53,10.45c-0.23,0.42-0.51,0.82-0.83,1.2c-2.25,2.66-4.35,6.16-8.55,4.51
				c-4.39-1.73-5.85-4.89-5.08-10.02c1.13-7.51,5.87-12.27,10.72-17.14c2.22-2.22,6.34,0.12,6.92,3.96
				C594.87,176.59,594.77,178.97,594.87,181.32"/>
			<path style="clip-path:url(#SVGID_00000113340893966813634930000011934730452265309109_);fill:#ED1C24;" d="M647.15,194.95
				c-11.57,25.41-25.67,49.2-44.56,69.97c-6.73,7.4-14.53,12.38-24.87,12.45c-1.62-0.16-3.21-0.45-4.77-0.8
				c-4.58-1.06-9.01-2.73-13.58-3.78c0-0.04-0.01-0.07-0.03-0.11c-0.02,0.03-0.05,0.06-0.07,0.09c-5.62-0.95-11.19-2.71-16.91-0.32
				c-1.11,0.47-1.81,0.21-1.6-1.74c0.77-6.9,1.38-13.94-4.98-19.07c-0.83-0.67-0.47-1.47-0.03-2.24
				c7.98-14.47,13.47-30.24,23.1-43.84c0.39-0.55,0.59-1.23,1.46-1.49c1.3,3.53-1.19,5.58-2.54,7.95c-1.52,2.68-2.67,5.46-3.41,8.42
				c-0.74,2.94-1.47,5.91-0.84,8.99c2.45,1.44,3.2-4.07,5.92-1.42c0.11,0.98,0.08,1.9-0.07,2.8v0.01c-0.3,1.83-1.08,3.52-2.18,5.15
				c-0.76,1.13-1.95,3.5-2.8,5.23c-0.01,0.01-0.01,0.03-0.01,0.04c-0.34,0.68-0.61,1.26-0.78,1.62c-0.03,0.05-0.05,0.09-0.07,0.13
				c-0.03,0.06-0.06,0.11-0.09,0.17c-0.16,0.46-1.25,9.5-0.56,13.71c0.02,0.14,0.05,0.27,0.08,0.42c0.13,1.8,0.4,3.54,2.49,5.46
				c2.58-8.33,8.79-10.88,16.31-11.24c1.69-0.08,3.73-1.2,4.7,1.43c1.65,4.5,5.34,4.77,9.16,3.92c3.9-0.89,7.68-2.28,11.52-3.45
				c5.68-0.02,9.62-3.22,12.3-7.65c3.09-5.13,5.62-10.6,9.68-15.28c-2.23-0.96-3.16,0.55-4.25,1.44c-3.43,2.83-7.45,4.68-11.48,6.31
				c-2.72,1.09-6.44,2.08-8.35-0.69c-1.78-2.59,1.02-4.88,2.81-6.89c0.32-0.35,0.59-0.73,0.86-1.11c0.27-0.21,0.55-0.43,0.82-0.63
				c1.8-0.6,3.6-1.2,5.4-1.8c14.85-1.98,27.46-15.26,28.81-30.21c-1.58,1.42-3.11,3.09-4.9,4.4c-2.78,2-5.74,1.92-8.32-0.35
				c-2.91-2.57-0.57-4.84,0.72-7.1c0.93-1.61,2.9-2.24,3.64-4.1c2.5-6.25,7.64-9.66,13.61-11.92c0.88-0.33,1.77-0.67,2.68-0.9h0.01
				c0.9-0.1,1.81-0.15,2.71-0.14c0.01-0.01,0.02,0,0.02,0c0.73,0.14,1.46,0.46,2.17,1.03c0.14,0.11,0.27,0.23,0.42,0.37
				C652.94,183.51,649.76,189.22,647.15,194.95"/>
			<path style="clip-path:url(#SVGID_00000113340893966813634930000011934730452265309109_);fill:#231F20;" d="M717.57,115.48
				c-0.35-0.11-0.69-0.2-1.04-0.27c-0.12-0.03-0.25-0.06-0.38-0.08c-0.57-0.11-1.15-0.18-1.72-0.22c-0.14-0.02-0.3-0.03-0.45-0.03
				c-2.13-0.11-4.28,0.15-6.44,0.39c-1.09,0.12-2.18,0.23-3.26,0.3c-1.22-0.03-2.38,0.17-3.5,0.51c-0.21,0.06-0.42,0.12-0.62,0.19
				c-0.33,0.1-0.65,0.22-0.97,0.35c-0.19,0.07-0.39,0.14-0.58,0.22c-1.34,0.53-2.68,1.13-4.05,1.56c-0.04,0.01-0.07,0.02-0.11,0.03
				c-0.27,0.04-0.55-0.08-0.73-0.32c-0.19-0.25-0.39-0.51-0.59-0.74c-0.12-0.14-0.23-0.28-0.37-0.43c-0.14-0.18-0.31-0.36-0.47-0.52
				c-0.13-0.14-0.26-0.28-0.4-0.42c-0.49-0.5-1-0.97-1.53-1.4c-0.16-0.14-0.34-0.28-0.51-0.42c-1.2-0.96-2.47-1.78-3.8-2.52
				c-0.26-0.14-0.53-0.28-0.79-0.43c-1.27-0.68-2.58-1.28-3.93-1.85c-0.4-0.17-0.8-0.35-1.21-0.51c-0.51-0.2-1.01-0.41-1.52-0.61
				c-0.65-0.26-0.62-1.17,0.03-1.42c1.69-0.65,3.31-1.79,4.79-3.13c2.74-2.47,5.01-5.61,6.36-7.61c0.45-0.79,0.76-1.62,0.98-2.47
				c0.04-0.14,0.07-0.27,0.1-0.42c0.13-0.56,0.21-1.13,0.28-1.7c0.04-0.37,0.07-0.74,0.09-1.12c0.03-0.39,0.05-0.78,0.06-1.17v-0.05
				c-0.02-0.73-0.96-1.04-1.39-0.43c-1.01,1.41-2,2.83-3.01,4.24c-0.05,0.08-0.11,0.14-0.2,0.2c-3.41,2.24-16.06,7.61-18.32,8.44
				c-0.07,0.02-0.13,0.04-0.18,0.06c-11.6,3.91-24.1,1.58-35.79,5.01c-0.57,0.16-2.32,0.14-1.77-0.74c1.82-2.97-0.67-1.84-1.49-1.61
				c-3.89,1.09-7.86,2.06-11.53,3.65c-4.6,2-6.92,0.34-8.4-3.94c-3.09-9-4.62-18.26-5.17-27.73c-1.33-23.14,2.17-45.72,7.84-68.04
				c0.81-3.22,0.35-5.47-2.92-6.23c-0.66-0.15-1.32-0.32-1.98-0.47c-0.22-0.05-0.45-0.1-0.67-0.15c-0.49-0.11-0.97-0.22-1.46-0.33
				c-0.37-0.08-0.72-0.16-1.09-0.23c-0.6-0.11-1.2-0.21-1.8-0.31c-0.3-0.04-0.59-0.08-0.89-0.12c-0.43-0.05-0.84-0.09-1.27-0.12
				h-0.06c-0.78,0-1.04,1.08-0.33,1.44c0,0.01,0.01,0.01,0.01,0.01c0.02,0.01,0.04,0.02,0.07,0.03c0.01,0.01,0.02,0.01,0.03,0.02
				c0,0,0.01,0,0.01,0.01c0.61,0.36,0.47,1.29-0.26,1.41c-1.11,0.18-2.21,0.38-3.31,0.58c-0.74,0.14-1.49,0.28-2.23,0.44
				c-0.68,0.13-1.35,0.27-2.03,0.43c-0.13,0.02-0.25,0.05-0.39,0.08c-0.19,0.04-0.39,0.08-0.58,0.13c-0.57,0.12-1.15,0.25-1.72,0.39
				c-0.18,0.04-0.38,0.08-0.56,0.13c-0.65,0.15-1.3,0.32-1.95,0.49c-0.72,0.18-1.43,0.37-2.15,0.56c-0.23,0.06-0.46,0.12-0.68,0.19
				c-0.63,0.17-1.26,0.36-1.88,0.54c-0.55,0.15-1.09,0.32-1.63,0.49c-0.1,0.03-0.21,0.07-0.32,0.1c-0.33,0.09-0.65,0.19-0.98,0.31
				c-0.06,0.01-0.11,0.03-0.17,0.05c-0.3,0.09-0.58,0.18-0.88,0.28l-1.1,0.37c-0.05,0.02-0.1,0.03-0.15,0.05
				c-0.47,0.15-0.94,0.32-1.39,0.48c-0.5,0.17-1,0.35-1.5,0.53c-0.07,0.02-0.13,0.05-0.2,0.07c-0.08,0.03-0.17,0.06-0.25,0.1
				c-0.47,0.16-0.93,0.35-1.38,0.52c-0.22,0.08-0.44,0.16-0.65,0.24c-0.03,0.01-0.05,0.02-0.08,0.03c-0.57,0.22-1.15,0.45-1.71,0.68
				c-0.72,0.3-1.44,0.59-2.16,0.9c-0.71,0.31-1.42,0.61-2.14,0.94c-0.71,0.32-1.41,0.64-2.12,0.97c-0.35,0.16-0.7,0.34-1.05,0.5
				c-0.36,0.17-0.7,0.35-1.05,0.51c-0.78,0.39-1.57,0.78-2.34,1.19c-0.6,0.31-1.2,0.62-1.79,0.95c-0.67,0.37-1.34,0.73-2,1.11
				c-0.66,0.38-1.33,0.76-1.98,1.15c-0.73,0.43-1.47,0.86-2.19,1.31c-0.15,0.09-0.31,0.19-0.47,0.3c-0.66,0.41-1.31,0.82-1.96,1.25
				c-0.01,0-0.01,0.01-0.02,0.01s-0.01,0.01-0.02,0.01c-0.45,0.3-0.9,0.58-1.33,0.89c-0.65,0.44-1.29,0.88-1.94,1.32
				c-0.61,0.43-1.22,0.85-1.82,1.29c-0.61,0.44-1.21,0.89-1.81,1.32c-0.76,0.58-1.52,1.16-2.27,1.75c-0.52,0.41-1.04,0.82-1.56,1.24
				c-0.45,0.36-0.9,0.72-1.33,1.09c-0.2,0.17-0.4,0.34-0.6,0.51c-0.52,0.44-1.05,0.88-1.56,1.33c-0.52,0.45-1.03,0.91-1.54,1.36
				c-0.18,0.15-0.36,0.31-0.53,0.47c-0.06,0.05-0.12,0.1-0.18,0.14c-0.17,0.11-0.35,0.22-0.52,0.35c-0.04,0.03-0.08,0.05-0.12,0.07
				c-0.48,0.32-0.95,0.62-1.4,0.95c-1.1,0.75-2.19,1.54-3.25,2.35c-0.25,0.19-0.52,0.4-0.77,0.6c-0.4,0.31-0.78,0.61-1.16,0.93
				c-0.08,0.06-0.15,0.12-0.22,0.19c-0.11,0.09-0.22,0.17-0.33,0.26c-0.42,0.35-0.83,0.69-1.25,1.06c-0.46,0.39-0.91,0.78-1.35,1.2
				c-0.05,0.05-0.1,0.09-0.15,0.14c-0.07,0.05-0.14,0.12-0.21,0.19c-0.06,0.05-0.12,0.11-0.18,0.17c-0.04,0.04-0.09,0.08-0.13,0.12
				c-0.42,0.37-0.82,0.75-1.22,1.15c-0.51,0.49-1.01,0.99-1.51,1.49c-0.05,0.05-0.1,0.09-0.16,0.12c-0.12,0.06-0.24,0.13-0.36,0.2
				c-0.12,0.07-0.24,0.14-0.36,0.21c-0.11,0.08-0.22,0.15-0.35,0.23c-0.2,0.14-0.41,0.3-0.6,0.46c-0.15,0.12-0.3,0.24-0.45,0.38
				c-0.44,0.41-0.89,0.88-1.33,1.4c-0.17,0.21-0.36,0.43-0.54,0.66c-0.23,0.28-0.46,0.6-0.7,0.93c-0.08,0.1-0.15,0.2-0.22,0.31
				c-0.07,0.1-0.14,0.2-0.22,0.32c-0.1,0.14-0.2,0.28-0.31,0.44c0.42-0.19,0.81-0.38,1.18-0.56l0.01-0.01
				c0.37-0.17,0.7-0.36,1.03-0.53c0.41-0.22,0.79-0.45,1.14-0.67c0.18-0.11,0.35-0.22,0.51-0.34c0.16-0.11,0.32-0.22,0.47-0.34
				c0.12-0.09,0.23-0.18,0.35-0.27c0.13-0.11,0.26-0.22,0.39-0.34c0.19-0.17,0.39-0.35,0.56-0.53c0.02-0.02,0.04-0.04,0.06-0.06
				c0.12-0.13,0.24-0.26,0.36-0.41c0.14-0.16,0.26-0.33,0.4-0.49c0.04-0.05,0.09-0.1,0.14-0.14c4.7-3.54,9.39-7.08,14.09-10.63
				c0.05-0.04,0.11-0.08,0.17-0.12c0.35-0.24,0.81-0.58,1.17-0.83c0.07-0.04,0.13-0.08,0.18-0.12c1.27-0.83,2.28-1.5,3.09-1.94
				c0.14-0.08,0.28-0.15,0.42-0.22c0.04-0.01,0.07-0.03,0.11-0.05c0.1-0.05,0.2-0.09,0.31-0.13c0.07-0.04,0.15-0.07,0.22-0.09
				c0.07-0.02,0.13-0.05,0.19-0.06c0.04-0.02,0.09-0.03,0.12-0.04h0.02c0.04-0.02,0.08-0.03,0.12-0.03
				c0.14-0.03,0.28-0.05,0.41-0.05c0.08,0,0.16,0.01,0.23,0.02c0.05,0.01,0.1,0.02,0.15,0.04c0.08,0.02,0.16,0.05,0.23,0.11h0.01
				c0.01,0,0.02,0.01,0.03,0.02c0.06,0.03,0.12,0.08,0.18,0.14c0.04,0.04,0.08,0.07,0.12,0.12c0.03,0.04,0.07,0.08,0.11,0.14
				c0.03,0.04,0.07,0.1,0.1,0.16c0.04,0.05,0.07,0.12,0.11,0.18c0.12,0.21,0.22,0.46,0.33,0.75c0.42,1.16,0.77,2.95,1.32,5.47
				c6.35,29.2,14.2,57.98,26.71,85.24c1.76,3.83,3.03,6.78-0.12,10.13c-3,3.19-6.81,5.91-9.7,9.2c-0.01,0-0.04,0.03-0.09,0.07
				c-0.33,0.24-1.43,1.14-2.66,2.12c-0.04,0.04-0.08,0.08-0.13,0.11c-1.57,1.27-3.31,2.69-3.87,3.1c-0.04,0.03-0.07,0.05-0.09,0.07
				c-8.65,6.15-8.89,6.03-14.48-2.96c-6.17-9.93-10.81-20.59-15.46-31.25c-0.54-1.22-0.85-3.68-2.54-3.12
				c-0.09,0.03-0.18,0.07-0.25,0.1c-0.75,0.4-0.85,1.21-0.67,2.09c0,0.01,0,0.01,0.01,0.02c0,0.01,0.01,0.03,0.01,0.04
				c0.11,0.58,0.35,1.18,0.59,1.7V117l0.01,0.01c0.3,0.63,0.61,1.13,0.73,1.33c0.02,0.02,0.03,0.04,0.04,0.06
				c0.41,0.6,0.76,1.23,1.08,1.87c0.66,1.32,1.17,2.72,1.68,4.12c0.23,0.64,0.47,1.28,0.71,1.91c0.01,0.03,0.03,0.05,0.04,0.08
				c1.31,2.52,2.65,5.04,3.97,7.55c-0.25-0.15-0.49-0.32-0.71-0.48c-0.22-0.16-0.44-0.33-0.65-0.5c-0.14-0.11-0.27-0.23-0.41-0.36
				c-0.13-0.12-0.25-0.24-0.38-0.37c-0.05-0.05-0.1-0.1-0.15-0.15c-0.13-0.15-0.27-0.31-0.4-0.47c-0.12-0.15-0.24-0.31-0.37-0.46
				c-0.06-0.08-0.12-0.16-0.17-0.24c-0.05-0.07-0.11-0.15-0.16-0.23c-0.01-0.02-0.02-0.03-0.03-0.04c-0.1-0.15-0.19-0.32-0.28-0.47
				c-0.08-0.14-0.16-0.27-0.23-0.42c-0.05-0.09-0.1-0.18-0.15-0.28c-0.33-0.64-0.59-1.31-0.82-2.01c-0.01-0.04-0.03-0.08-0.05-0.12
				c-1.38-2.48-2.79-4.97-4.17-7.45c0,0-0.02-0.02-0.04-0.06c-0.07-0.1-0.21-0.31-0.43-0.6c0-0.01-0.01-0.02-0.02-0.03
				c-0.02-0.02-0.03-0.04-0.05-0.06c-2.08-2.9-9.56-13.63-11.65-21.01c-0.08-0.27-0.15-0.55-0.21-0.81c0-0.01-0.01-0.02-0.02-0.03
				c-0.01-0.01-0.02-0.03-0.04-0.05c-0.44-0.69-3.09-5.27-4.11-8.62c0.17,0.14,0.34,0.28,0.51,0.44c2.5,2.33,4.33,6.1,4.57,6.59
				c0.01,0.03,0.02,0.05,0.02,0.05c0.06,0.16,0.12,0.32,0.17,0.48c1.19,1.72,2.96,2.69,4.7,1.52c2.37-1.6-0.37-2.89-0.91-4.1
				c-0.49-1.08-0.98-2.16-1.49-3.24c-0.97-2.08-1.97-4.14-3.03-6.18c-0.36-0.7-0.72-1.39-1.1-2.08c-0.01-0.02-0.02-0.04-0.03-0.06
				c-0.09-0.17-0.18-0.35-0.27-0.52c-0.02-0.04-0.05-0.09-0.07-0.13c-0.02-0.04-0.04-0.07-0.06-0.11c-0.36-0.66-0.72-1.32-1.09-1.96
				c-0.05-0.09-0.1-0.17-0.15-0.26c-0.24-0.43-0.49-0.85-0.73-1.28c-0.59-1.02-1.2-2.04-1.83-3.03c-0.32-0.51-0.63-1.01-0.96-1.51
				c-0.64-1-1.3-1.98-1.98-2.95c-0.22-0.34-0.46-0.67-0.69-1c-0.17-0.24-0.2-0.55-0.06-0.8c0.02-0.03,0.04-0.07,0.07-0.1
				c0.4-0.49,0.82-0.95,1.25-1.44c0.16-0.17,0.32-0.36,0.47-0.55c0.26-0.32,0.52-0.65,0.74-1.02c0.08-0.12,0.15-0.24,0.22-0.37
				c0.1-0.17,0.19-0.35,0.28-0.53c0.09-0.18,0.17-0.38,0.25-0.58c0.05-0.12,0.09-0.23,0.13-0.36c0.07-0.21,0.13-0.43,0.19-0.66
				c-0.24,0.17-0.49,0.34-0.71,0.51c-0.18,0.13-0.35,0.26-0.52,0.39c-0.05,0.05-0.11,0.09-0.16,0.13c-0.19,0.15-0.38,0.31-0.56,0.47
				c-0.01,0.01-0.02,0.02-0.03,0.03c-0.18,0.15-0.37,0.32-0.53,0.48l-0.09,0.09c-0.14,0.14-0.27,0.28-0.41,0.43
				c-0.01,0.01-0.02,0.03-0.03,0.04c-0.14,0.15-0.27,0.31-0.4,0.47c-0.17,0.2-0.33,0.43-0.48,0.65c-0.13,0.19-0.25,0.39-0.38,0.59
				v0.01c-0.12,0.2-0.23,0.42-0.34,0.64c-0.01,0.02-0.02,0.03-0.03,0.05c-0.03,0.06-0.08,0.13-0.13,0.18
				c-0.61,0.63-1.22,1.26-1.84,1.89c-0.61,0.62-1.23,1.25-1.85,1.87c-0.55,0.54-1.09,1.08-1.65,1.61c-0.54,0.53-1.08,1.04-1.64,1.54
				c-0.06,0.06-0.13,0.12-0.2,0.18c-0.33,0.3-0.65,0.59-0.99,0.89c-0.03,0.03-0.07,0.06-0.1,0.09c-0.48,0.41-0.97,0.82-1.46,1.22
				c-0.43,0.36-0.88,0.71-1.32,1.05c-0.09,0.08-0.18,0.15-0.28,0.22c-0.54,0.41-1.1,0.81-1.66,1.2c-10.57,7.28-22.05,11.53-35.11,10
				c-6.5-0.75-9.7-5.3-8.44-11.71c0.09-0.44,0.19-0.89,0.33-1.31c0.15-0.54,0.34-1.07,0.53-1.6c0.07-0.23,0.16-0.47,0.24-0.69
				c0.09-0.25,0.18-0.51,0.27-0.76c0.09-0.27,0.18-0.55,0.27-0.82l0.01-0.01c0.01-0.05,0.04-0.09,0.07-0.14
				c3.72-6,7.46-12.01,11.19-18.01c0.03-0.05,0.06-0.1,0.11-0.14c0-0.01,0-0.01,0.01-0.02l10.8-10.03c0.02-0.02,0.04-0.04,0.07-0.06
				c2.34-1.74,4.7-3.43,7.08-5.06c0.58-0.4,1.15-0.78,1.73-1.17c0.93-0.63,1.86-1.24,2.81-1.85c0.91-0.59,1.81-1.17,2.73-1.75
				c0.03-0.02,0.07-0.04,0.1-0.06c0.81-0.52,1.64-1.03,2.46-1.53c0.82-0.51,1.65-1.01,2.48-1.5c0.95-0.56,1.9-1.11,2.86-1.66
				c0.75-0.43,1.51-0.85,2.26-1.28c0.75-0.43,1.51-0.83,2.27-1.25c1.69-0.92,3.39-1.81,5.11-2.69c1.28-0.65,2.56-1.29,3.85-1.91
				c0.64-0.32,1.29-0.62,1.93-0.93c1.29-0.62,2.59-1.22,3.9-1.81c0.66-0.3,1.31-0.59,1.96-0.88c1.31-0.58,2.63-1.14,3.95-1.7
				c0.9-0.37,1.78-0.73,2.67-1.1c1.77-0.71,3.55-1.4,5.34-2.09h0.01c1.79-0.67,3.59-1.32,5.4-1.96c7.26-2.53,14.66-4.74,22.22-6.63
				c4.87-1.15,10.19-0.6,14.55-3.75c-5.23,0.55-10.45,1.03-15.51,2.56c-0.01,0-0.02,0.01-0.03,0.01c-0.19,0.01-0.43,0.08-0.67,0.18
				c-0.08,0.03-0.16,0.06-0.24,0.1h-0.01c-0.06,0.02-0.11,0.04-0.18,0.05c-0.64,0.09-1.29,0.19-1.93,0.31
				c-0.5,0.08-1,0.17-1.49,0.26c-1.53,0.28-3.04,0.62-4.55,0.99c-0.66,0.16-1.32,0.33-1.98,0.51c-1.32,0.35-2.64,0.72-3.95,1.12
				c-5.88,1.77-11.64,3.94-17.41,6.03c-1.16,0.43-2.32,0.85-3.48,1.29c-1.15,0.44-2.3,0.89-3.45,1.34c-1.14,0.47-2.28,0.94-3.42,1.4
				c-1.13,0.48-2.25,0.97-3.37,1.47c-2.25,1-4.47,2.05-6.67,3.13c-0.98,0.49-1.94,0.99-2.91,1.5c-0.27,0.14-0.56,0.28-0.83,0.44
				c-0.92,0.49-1.82,0.98-2.73,1.49c-8.53,4.77-16.56,10.41-23.87,17.28c-0.01,0.01-0.03,0.03-0.04,0.04
				c-1.04,0.8-2.05,1.64-3.02,2.49c0,0.01-0.01,0.01-0.01,0.01c-0.98,0.86-1.93,1.76-2.85,2.69c-1.83,1.85-3.53,3.84-5.08,5.97
				c-0.01,0.02-0.03,0.04-0.04,0.05c-1.66,1.83-3.27,3.69-4.77,5.64c0,0-0.01,0-0.01,0.01c-0.5,0.65-0.99,1.3-1.47,1.96
				c-0.72,1.01-1.41,2.02-2.06,3.06c-0.8,1.28-1.55,2.58-2.23,3.95c-0.24,0.48-0.48,0.98-0.7,1.48c-0.01,0.01-0.01,0.03-0.02,0.04
				c-0.74,1.28-1.41,2.59-2.01,3.93c-0.25,0.56-0.5,1.12-0.73,1.69c-0.28,0.7-0.56,1.42-0.8,2.16c-0.08,0.22-0.15,0.46-0.22,0.68
				c-0.8,2.47-1.36,5.03-1.64,7.66c-0.22,2.12-0.62,4.6,2.71,4.87c5.14,0.43,9.17,3.22,12.96,6.32
				c18.32,14.98,30.98,34.51,43.24,54.29c1.38,2.24,3.15,4.78,2.04,8.04c-0.34,1,0.42,2.8,1.24,3.7c3.72,4.09,4.11,9.42,5.87,14.27
				c1.75,4.79,0.35,6.76-4.46,8.16c-15.68,4.6-29.1,12.99-40.24,25.05c-6.43,6.96-8.53,19.66-2.64,26.47
				c1.31,2.29,2.87,4.28,4.61,6.08c0.39,0.39,0.77,0.77,1.17,1.15c2.22,2.09,4.68,3.89,7.24,5.57c0.93,0.6,1.86,1.19,2.8,1.78
				c0.49,0.3,0.97,0.59,1.44,0.89c0.96,0.58,1.9,1.15,2.85,1.73c0.01,0.01,0.03,0.02,0.04,0.03c0.77,0.57,1.56,1.09,2.36,1.56
				c0.72,0.43,1.47,0.82,2.21,1.18c1.59,0.76,3.22,1.38,4.87,1.9c2.1,0.65,4.23,1.14,6.4,1.55c3.53,0.67,7.12,1.13,10.65,1.75
				c1.43,0.25,2.4,0.5,3.17,1.85c7.15,12.64,18.98,18.76,32.23,22.77c3.53,1.07,5.23-0.18,5.17-4.26c-0.06-3.94-0.07-6.26,0.6-7.66
				c0.14-0.3,0.31-0.54,0.52-0.75c0.07-0.08,0.14-0.14,0.21-0.2c0.15-0.13,0.32-0.24,0.5-0.35h0.01c0.18-0.11,0.39-0.2,0.62-0.27
				c0.11-0.04,0.22-0.08,0.35-0.11c0.12-0.04,0.25-0.07,0.39-0.09c0.12-0.03,0.25-0.06,0.39-0.08c0.08-0.02,0.16-0.03,0.25-0.05
				c1.4-0.22,3.31-0.27,5.88-0.36h0.02c0.04,0,0.07,0,0.1,0.01h0.01c0.94,0.12,1.87,0.25,2.8,0.43h0.04
				c1.99,0.34,3.98,0.75,5.93,1.25c0.65,0.16,1.3,0.35,1.95,0.53c2.56,0.72,5.09,1.6,7.57,2.61c0.01,0,0.01,0.01,0.02,0.01
				c0.05,0.03,0.11,0.05,0.15,0.09c0.21,0.16,0.43,0.32,0.64,0.47c0.2,0.15,0.42,0.31,0.63,0.44c2.17,1.44,4.28,2.31,6.36,2.68
				c0.54,0.09,1.08,0.15,1.61,0.18c4.51,0.21,8.83-1.89,13.05-5.57c0.76-0.67,1.6-1.24,2.38-1.88
				c14.42-11.93,26.42-26.01,37.18-41.23c1.05-1.47,1.88-2.99,3.82-3.84c9.72-4.23,18.69-9.47,26.93-15.74
				c1.8-1.37,3.56-2.8,5.29-4.27c0.88-0.74,1.75-1.51,2.61-2.28c1.72-1.55,3.4-3.14,5.04-4.79c0.82-0.82,1.63-1.66,2.43-2.5
				c0.8-0.85,1.6-1.72,2.38-2.59c0.04-0.05,0.08-0.11,0.11-0.17c0.09-0.2,0.19-0.4,0.32-0.59c0.02-0.05,0.05-0.1,0.08-0.15
				c0-0.03,0.01-0.05,0.04-0.07c0.06-0.14,0.14-0.27,0.23-0.41c0.04-0.07,0.08-0.13,0.12-0.2c0.08-0.13,0.16-0.26,0.25-0.4
				c0.12-0.2,0.26-0.4,0.42-0.58c0.14-0.19,0.3-0.38,0.46-0.55c0.08-0.09,0.15-0.17,0.24-0.25c0.08-0.08,0.16-0.17,0.25-0.25
				c0.16-0.16,0.35-0.33,0.53-0.48c0.19-0.15,0.39-0.3,0.59-0.44c0.06,0.07,0.12,0.14,0.17,0.22c0.26,0.43,0.25,0.94,0.07,1.47
				l-0.01,0.01v0.01c-0.5,1.46-2.24,3.04-2.84,3.34c0.46,0.19,1.18,0.17,1.94-0.09c0.34-0.12,0.67-0.28,1.01-0.5
				c0.57-0.38,1.1-0.91,1.51-1.59c1.37-1.79,1.59-1.9,2.97-3.24c3.87-3.73,5.69-9.2,7.8-14.11c7.19-16.72,10.47-33.7,1.63-50.94
				c-1.17-2.29-0.35-3.32,1.41-4.49c0.63-0.42,1.25-0.82,1.89-1.22c0.01-0.01,0.03-0.02,0.05-0.03c0.93-0.58,1.87-1.13,2.83-1.64
				c0.77-0.41,1.55-0.79,2.34-1.13c0.28-0.13,0.57-0.25,0.85-0.37c0.45-0.19,0.91-0.37,1.36-0.52c0.22-0.08,0.45-0.15,0.67-0.22
				c0.05-0.02,0.1-0.03,0.15-0.05c0.32-0.1,0.64-0.19,0.97-0.27c0.32-0.09,0.63-0.16,0.95-0.23c0.33-0.07,0.65-0.13,0.98-0.19
				c0.32-0.05,0.63-0.1,0.95-0.14c0.37-0.05,0.73-0.09,1.1-0.11c0.34-0.03,0.66-0.05,1-0.05c0.04-0.01,0.08-0.01,0.12-0.01
				C718.25,116.96,718.4,115.74,717.57,115.48 M649.5,123.1c1.01-4.02,3.98-6.76,6.34-9.98c4.53-6.17,15.25-9.08,21.29-12.86
				c0.16-0.07,0.33-0.14,0.49-0.22l0.01-0.01c2.83-1.28,5.27-2.92,7.72-4.75c1.12-0.83,2.25-2.32,3.22-0.15
				c0.02,0.05,0.04,0.1,0.07,0.16c0.02,0.05,0.04,0.1,0.06,0.16c-0.04,0.14-0.09,0.28-0.14,0.43c-0.82,2.3-2.94,4.87-5.43,7.02
				c-0.57,0.48-1.15,0.94-1.74,1.37c-1.83,1.32-3.77,2.36-5.47,2.89h-0.01c-0.2,0.06-0.41,0.11-0.6,0.15
				c-0.09,0.03-0.18,0.05-0.27,0.07c-1.02,0.32-1.85,0.81-2.55,1.43c-0.27,0.25-0.54,0.53-0.77,0.82c-0.12,0.14-0.23,0.3-0.34,0.45
				c-0.28,0.41-0.53,0.85-0.75,1.32c-0.03,0.05-0.05,0.11-0.08,0.17c0,0.01,0,0.02-0.01,0.03c-0.01,0.02-0.02,0.03-0.02,0.05
				c-0.06,0.13-0.12,0.28-0.17,0.42c-0.09,0.24-0.18,0.49-0.26,0.73c-0.1,0.27-0.18,0.55-0.26,0.83c-1.54,5.56-4.96,9.01-10.79,8.56
				c-3.08-0.24-2.32,2.23-3.47,3.26c-1.16,1.04-1.5,3.01-3.79,2.09C649.61,126.69,649.01,125.1,649.5,123.1 M658.16,160.3
				c0,0.01-0.01,0.01-0.01,0.01c-0.15,0.1-0.3,0.2-0.45,0.3c-2.41,1.53-7.39,4.08-7.93,4.08h-0.01c-4.31-0.74-5.42-2.9-4.1-7.56
				c0.09-0.32,0.18-0.63,0.28-0.95c0.07-0.21,0.15-0.43,0.22-0.64c0.02-0.05,0.04-0.1,0.06-0.15c0.08-0.22,0.16-0.44,0.25-0.65
				c0.27-0.71,0.59-1.38,0.95-2.04c0.13-0.27,0.28-0.55,0.45-0.81c0.17-0.31,0.36-0.61,0.55-0.91c0.01-0.01,0.02-0.03,0.03-0.04
				c0.18-0.27,0.37-0.55,0.57-0.82c1.07-1.49,2.33-2.84,3.74-4.08c0.42-1.46,0.4-1.77-0.83-1.48c-0.67,0.22-1.32,0.46-1.93,0.68
				c-0.25,0.1-0.49,0.18-0.71,0.27c-0.59,0.22-1.11,0.44-1.51,0.62c-0.13,0.06-0.25,0.12-0.36,0.17c-0.27,0.14-0.44,0.26-0.47,0.34
				c-0.11,0.05-0.23,0.1-0.35,0.15c-0.16,0.06-0.35,0.14-0.53,0.22c-0.01,0-0.01,0-0.02,0.01c-0.24,0.12-0.49,0.23-0.66,0.33
				c-0.05,0.02-0.09,0.06-0.14,0.09h-0.01c-2.39,1.22-4.46,2.72-6.22,4.48c-0.11,0.09-0.22,0.17-0.33,0.27
				c-3.28,2.93-6.36,10.58-6.56,11.09c0,0.01-0.01,0.02-0.01,0.03s-0.01,0.03-0.01,0.04c-0.08,0.24-0.44,1.09-0.65,1.77
				c-0.03,0.06-0.05,0.12-0.06,0.18c-0.03,0.09-0.06,0.18-0.08,0.26c-0.02,0.07-0.03,0.14-0.04,0.22c-0.68,6.94-1.15,8.1-6.12,6.88
				c-0.12-0.03-0.23-0.08-0.33-0.16c-0.01,0-0.02-0.01-0.03-0.02c-0.28-0.26-0.56-0.58-0.83-0.9c-0.06-0.08-0.13-0.15-0.18-0.23
				c-0.06-0.08-0.12-0.16-0.18-0.25c-0.96-1.37-2.48-4.16-2.88-5.05c-0.03-0.06-0.05-0.11-0.07-0.17c-0.01-0.1-0.03-0.19-0.04-0.3
				c-0.03-0.18-0.05-0.38-0.08-0.57c-0.02-0.2-0.05-0.41-0.07-0.62c-0.05-0.39-0.09-0.79-0.13-1.21c-0.02-0.27-0.05-0.55-0.07-0.82
				c-0.02-0.23-0.04-0.48-0.06-0.71c-0.01-0.16-0.03-0.33-0.04-0.49c-0.03-0.43-0.06-0.84-0.09-1.25c0-0.03,0-0.05-0.01-0.08
				c-0.02-0.43-0.05-0.83-0.07-1.22c-0.01-0.1-0.02-0.2-0.02-0.3c-0.01-0.1-0.01-0.19-0.02-0.28c-0.01-0.19-0.02-0.37-0.03-0.54
				c-0.01-0.14-0.02-0.28-0.03-0.42c-0.02-0.4-0.03-0.71-0.04-0.93v-0.28c0.93-3.41,3.06-5.86,5.94-7.84
				c11.13-7.61,23.54-12.02,36.65-14.65c1.5-0.31,3.33-1.13,2.86,1.6c-0.02,0.13-0.05,0.27-0.07,0.41
				C663.69,143.92,658.38,159.79,658.16,160.3 M570.32,25.6c0.01-0.58,0.03-1.17,0.06-1.76c0.04-0.68,0.09-1.37,0.16-2.07
				c0-0.03,0.01-0.06,0.01-0.08c0.15-0.76,1.23-0.84,1.49-0.09c0,0.01,0.01,0.01,0.01,0.02c0.03,0.09,0.06,0.17,0.08,0.26
				c0.12,0.38,0.23,0.75,0.34,1.13c0.27,1,0.51,1.97,0.7,2.95c0.09,0.46,0.18,0.92,0.26,1.36c0,0.03,0.01,0.06,0.01,0.08
				c0.08,0.49,0.16,0.97,0.23,1.44c0.07,0.51,0.14,1.01,0.2,1.52c0.03,0.26,0.06,0.53,0.09,0.8c0.1,0.89,0.19,1.76,0.26,2.64
				c0.08,0.88,0.16,1.74,0.23,2.61c0.1,1.18,0.2,2.35,0.35,3.52c0.05,0.48,0.11,0.96,0.17,1.43c0.06,0.48,0.13,0.95,0.2,1.42
				c1.45,8.99,2.44,18.13,5.02,26.79c3.95,13.3,2.27,27.56,7.61,40.51c0.51,1.25,0.48,2.4-0.98,2.9c-1.56,0.54-2.06-0.75-2.56-1.79
				c-2.64-5.51-4.6-11.31-5.59-17.27c-2.42-14.61-5.73-29.26-6.2-43.96c-0.03-0.96-0.08-1.91-0.16-2.87
				c-0.04-0.48-0.08-0.96-0.13-1.43c-0.17-1.9-0.43-3.82-0.69-5.75c-0.07-0.54-0.14-1.09-0.21-1.63c-0.08-0.55-0.15-1.09-0.21-1.64
				c-0.07-0.55-0.14-1.1-0.2-1.66c-0.07-0.55-0.13-1.1-0.18-1.66c-0.05-0.46-0.09-0.92-0.13-1.37c-0.1-1.22-0.18-2.45-0.22-3.7
				c-0.02-0.57-0.03-1.14-0.03-1.71C570.3,26.24,570.3,25.92,570.32,25.6 M563.71,23.9c0.03,0.05,0.07,0.11,0.1,0.18
				c1.55,2.54,1.91,5.35,2.16,8.19c0,0.02,0,0.04,0.01,0.06c0.07,0.37,0.14,0.74,0.2,1.12c0.05,0.3,0.1,0.59,0.15,0.9
				c0.06,0.32,0.11,0.63,0.17,0.96c0.04,0.24,0.08,0.5,0.12,0.76c0.06,0.36,0.12,0.73,0.18,1.1c0.09,0.54,0.17,1.08,0.26,1.63
				c0.07,0.46,0.14,0.92,0.21,1.37c0,0.01,0,0.02,0.01,0.03c0.09,0.61,0.18,1.23,0.27,1.85c0.09,0.62,0.18,1.24,0.27,1.85
				c0.04,0.32,0.09,0.62,0.13,0.93c0.09,0.61,0.18,1.22,0.26,1.83c0.09,0.6,0.17,1.2,0.25,1.79c0.07,0.55,0.15,1.1,0.22,1.63
				c0.01,0.07,0.02,0.15,0.03,0.22c0.07,0.53,0.14,1.05,0.2,1.55c0.04,0.27,0.08,0.54,0.11,0.8c0.07,0.53,0.14,1.04,0.2,1.53
				c0.04,0.24,0.07,0.49,0.1,0.72c0.01,0.05,0.02,0.09,0.02,0.14c0.06,0.39,0.1,0.75,0.15,1.11c0.01,0.03,0.01,0.07,0.01,0.1
				c0.06,0.43,0.11,0.83,0.16,1.21l0.03,0.18c0.04,0.31,0.08,0.59,0.12,0.86v0.04c0.02,0.11,0.05,0.24,0.08,0.39
				c0.03,0.13,0.06,0.3,0.09,0.46c0.01,0.04,0.02,0.08,0.03,0.13c0.03,0.12,0.06,0.25,0.08,0.4c0.01,0.05,0.02,0.1,0.04,0.15
				c0.02,0.1,0.04,0.21,0.06,0.33c0.01,0.04,0.02,0.08,0.03,0.12c0.03,0.15,0.06,0.31,0.09,0.46c0.03,0.16,0.07,0.33,0.1,0.5
				c0.04,0.21,0.09,0.43,0.13,0.65c0.1,0.5,0.21,1.04,0.34,1.61c0.01,0.06,0.03,0.12,0.04,0.19c0.1,0.45,0.19,0.93,0.3,1.41
				c0.03,0.16,0.07,0.33,0.1,0.49c0.04,0.18,0.07,0.37,0.11,0.56c0.08,0.41,0.17,0.81,0.26,1.24c0.12,0.58,0.24,1.17,0.37,1.78
				c0.22,1.05,0.45,2.13,0.68,3.23c0.22,1.08,0.45,2.18,0.67,3.27c0.01,0.07,0.03,0.14,0.05,0.21c0.13,0.65,0.26,1.31,0.41,1.96
				c0.11,0.5,0.21,1,0.32,1.5c0.11,0.57,0.23,1.13,0.35,1.68c0.01,0.01,0.01,0.02,0.01,0.03c0.92,4.38,1.72,8.21,2.15,10.18
				c0.05,0.28,0.11,0.53,0.15,0.73c-0.04-0.06-0.07-0.13-0.11-0.21c-1.33-2.62-3.64-11.21-5.56-19.11
				c-0.21-0.93-0.43-1.83-0.64-2.73c0-0.02-0.01-0.04-0.01-0.06c-0.48-2.04-0.92-3.98-1.29-5.68c-0.1-0.47-0.19-0.92-0.28-1.34
				c-0.09-0.42-0.17-0.81-0.24-1.19c-0.1-0.5-0.19-0.96-0.27-1.37c-0.04-0.22-0.08-0.44-0.12-0.63c-0.01-0.05-0.02-0.11-0.03-0.15
				l-0.03-0.15c-0.01-0.03-0.01-0.07-0.01-0.1c-0.01-0.07-0.02-0.13-0.04-0.19c-0.04-0.25-0.08-0.48-0.11-0.67
				c0-0.01,0-0.03-0.01-0.04c-0.04-0.16-0.08-0.34-0.11-0.52c-0.01-0.05-0.02-0.1-0.03-0.16c-0.11-0.48-0.22-0.99-0.33-1.53
				c-0.06-0.27-0.12-0.56-0.17-0.84c-0.05-0.27-0.11-0.55-0.16-0.82c-0.11-0.58-0.22-1.17-0.34-1.78c-0.05-0.25-0.09-0.5-0.14-0.75
				c-0.02-0.13-0.04-0.25-0.07-0.38c-0.08-0.44-0.15-0.88-0.23-1.32c-0.18-1.05-0.37-2.11-0.55-3.14c-0.11-0.62-0.21-1.24-0.32-1.85
				c-0.05-0.28-0.09-0.56-0.14-0.83c-0.05-0.32-0.1-0.63-0.15-0.95c-0.05-0.28-0.09-0.57-0.14-0.85c-0.04-0.28-0.09-0.56-0.13-0.83
				c-0.05-0.26-0.09-0.53-0.13-0.78c-0.02-0.13-0.04-0.26-0.06-0.39c-0.05-0.35-0.1-0.67-0.15-0.99c-0.03-0.15-0.05-0.3-0.07-0.44
				c-0.04-0.22-0.07-0.44-0.1-0.64c-0.01-0.02-0.01-0.05-0.01-0.07c-0.03-0.17-0.06-0.35-0.08-0.51c-0.03-0.18-0.05-0.37-0.08-0.53
				c-0.02-0.15-0.04-0.28-0.06-0.42c-0.07-0.47-0.13-0.81-0.16-1.05c-0.01-0.07-0.02-0.12-0.03-0.17c0-0.07-0.01-0.11-0.01-0.11
				C563.1,31.98,563.45,28.01,563.71,23.9 M566.54,112.82c-0.66-1.62-1.3-3.24-1.93-4.85c-0.63-1.62-1.25-3.24-1.86-4.85
				c-0.41-1.08-0.8-2.17-1.2-3.25c-0.38-1.02-0.75-2.05-1.11-3.06c-0.37-1.03-0.72-2.05-1.08-3.07c-0.55-1.6-1.1-3.2-1.63-4.79
				c-0.03-0.08-0.05-0.15-0.08-0.23c-0.46-1.36-0.9-2.74-1.33-4.11c-0.45-1.39-0.89-2.79-1.31-4.18c-0.01-0.06-0.03-0.12-0.05-0.18
				c-0.24-0.75-0.47-1.52-0.7-2.28c-0.42-1.41-0.83-2.83-1.24-4.25c-3.85-13.48-6.59-27.15-6.96-41.22
				c-0.09-3.56,5.31-9.54,8.74-9.37c2.26,0.11,1.69,2.27,1.94,3.48c2.29,11.03,4.28,22.12,6.62,33.15
				c3.65,17.28,7.7,34.48,13.71,51.13c0.08,0.22,0.15,0.44,0.23,0.64c0.15,0.42,0.3,0.81,0.43,1.19c0.06,0.19,0.12,0.38,0.19,0.56
				c0.12,0.36,0.23,0.69,0.35,1.02c0.1,0.33,0.2,0.64,0.3,0.94c0.04,0.13,0.08,0.26,0.11,0.39s0.07,0.24,0.09,0.36
				c0.02,0.07,0.04,0.14,0.05,0.2c0.11,0.46,0.19,0.88,0.24,1.27v0.04c0.01,0.05,0.01,0.09,0.01,0.13c0.02,0.22,0.03,0.44,0.03,0.64
				c0,0.27-0.03,0.54-0.07,0.8c-0.01,0.07-0.02,0.14-0.04,0.2c-0.05,0.25-0.12,0.49-0.22,0.74c-0.05,0.12-0.11,0.25-0.17,0.39
				c-0.04,0.07-0.08,0.15-0.12,0.23c-0.04,0.08-0.08,0.16-0.13,0.23c-0.09,0.13-0.17,0.27-0.27,0.41c-0.09,0.13-0.19,0.27-0.32,0.42
				c-0.35,0.45-0.78,0.92-1.29,1.42c-0.17,0.17-0.35,0.35-0.54,0.52c-0.37,0.36-0.78,0.73-1.23,1.14c-0.43,0.38-0.89,0.79-1.38,1.22
				c-0.02,0.03-0.05,0.05-0.07,0.07c-0.01,0.01-0.03,0.02-0.04,0.03c0,0-0.01,0-0.01,0.01c0,0-0.01,0-0.01,0.01
				c0,0-0.01,0-0.01,0.01c-0.39,0.27-0.92,0.13-1.13-0.31c-0.01,0-0.01-0.01-0.01-0.01s-0.01-0.01-0.01-0.02
				C570.11,121.45,568.28,117.13,566.54,112.82 M502.16,255.82c-0.47,0.06-0.95,0.12-1.41,0.18c-0.95,0.12-1.91,0.25-2.87,0.37
				c-1.02,0.12-2.04,0.22-3.06,0.31c-0.44,0.04-0.88,0.07-1.31,0.1c-0.36,0.02-0.71,0.04-1.07,0.05c-0.24,0.01-0.5,0.02-0.74,0.02
				c-0.77,0.02-1.55,0.02-2.31,0c-0.4-0.01-0.79-0.03-1.18-0.05c-0.26-0.01-0.53-0.03-0.79-0.06c-0.18-0.01-0.38-0.03-0.56-0.05
				c-0.34-0.03-0.67-0.07-1.01-0.12c-0.07-0.01-0.15-0.02-0.22-0.03c-0.45-0.06-0.9-0.14-1.34-0.23c-0.59-0.11-1.18-0.24-1.76-0.41
				c-0.18-0.05-0.38-0.1-0.56-0.16c-0.13-0.04-0.26-0.08-0.4-0.12c-0.11-0.03-0.23-0.07-0.36-0.11c-0.18-0.06-0.37-0.12-0.55-0.19
				c-0.82-0.3-1.66-0.64-2.47-1.05c-0.03-0.01-0.05-0.03-0.08-0.04c-0.31-0.19-0.62-0.39-0.95-0.58c-0.44-0.26-0.88-0.53-1.31-0.78
				c-2.18-1.28-4.88-2.82-7.55-4.8c-0.15-0.1-0.3-0.2-0.45-0.32c-6.72-5.03-13.07-12.7-10.37-25.22c0.01-0.03,0.02-0.07,0.03-0.1
				c0.21-0.63,0.38-1.22,0.57-1.84c0-0.02,0.01-0.03,0.01-0.04c1.09-3.49,2.58-6.87,13.31-13.2c0.08-0.04,0.15-0.09,0.23-0.14
				c0.63-0.38,1.29-0.75,1.99-1.15c9.27-5.22,19.08-7.34,29.63-6.72c3.41,0.19,5.33,0.73,5.79,5c0.88,8.17,7.05,13.12,12.92,17.99
				c1.16,0.97,2.55,1.64,3.83,2.47c5.31,3.48,10.09,3.48,14.1-1.33c6.05-7.3,10.4-15.71,13.22-24.82c0.21-0.64,0.05-1.4,0.03-2.92
				c-0.04-0.02-0.08-0.04-0.12-0.06c-0.02-0.01-0.04-0.02-0.06-0.02c-1.11-0.42-1.78,0.59-2.34,1.38
				c-2.34,3.31-4.38,6.83-6.82,10.05c-2.67,3.52-4.59,3.32-6.74-0.56c-0.58-1.04-1.09-2.15-1.25-3.31
				c-1.28-9.33-5.86-17.58-8.67-26.42c-0.28-0.89-0.56-1.65-0.83-2.31c-0.06-0.13-0.11-0.26-0.17-0.39
				c-0.06-0.13-0.11-0.25-0.17-0.38c-0.1-0.23-0.21-0.45-0.33-0.64c-0.06-0.11-0.13-0.22-0.19-0.33c-0.13-0.21-0.26-0.41-0.4-0.59
				c-0.21-0.28-0.44-0.54-0.67-0.74c-0.13-0.11-0.25-0.22-0.39-0.32c-0.56-0.4-0.43-1.25,0.24-1.38c0.32-0.06,0.64-0.12,0.96-0.19
				c7.28-1.63,15.18-5.71,22.57-11.11c2.22-1.63,5-3.93,7.4-5.97l0.02-0.01c2.8-2.4,5.08-4.43,5.31-4.64
				c0.02-0.02,0.03-0.03,0.05-0.04c2.1-1.56,3.71-3.01,5.18-4.4c0.05-0.04,0.1-0.08,0.15-0.13c0.69-0.65,1.36-1.3,2.05-1.93
				c0.22-0.21,0.45-0.43,0.68-0.63c3.71-3.38,7.61-6.53,11.42-9.81c1-0.86,2.41-1.8,3.63-0.84c1.45,1.13,0.11,2.42-0.46,3.54
				c-1.06,2.05-2.84,3.83-2.23,6.44c0.01,0.03,0.03,0.06,0.04,0.08c-0.97,1.11-1.9,2.24-2.81,3.39c-0.92,1.14-1.79,2.29-2.65,3.46
				c-0.35,0.48-0.7,0.97-1.04,1.47c-0.31,0.43-0.61,0.86-0.91,1.3c-0.02,0.04-0.05,0.07-0.07,0.11c-0.01,0.02-0.03,0.04-0.04,0.06
				c-0.01,0.02-0.02,0.03-0.03,0.05c-0.23,0.34-0.47,0.69-0.69,1.04c-0.6,0.91-1.18,1.82-1.74,2.75c-0.25,0.42-0.51,0.83-0.74,1.25
				c-0.45,0.75-0.89,1.53-1.3,2.29c-0.43,0.76-0.84,1.54-1.24,2.32c-0.22,0.42-0.44,0.84-0.64,1.27c-0.24,0.48-0.47,0.96-0.69,1.43
				c-0.05,0.09-0.09,0.19-0.13,0.28c-0.21,0.44-0.42,0.88-0.61,1.31c-0.31,0.67-0.6,1.34-0.88,2.01c-0.25,0.59-0.49,1.17-0.72,1.77
				v0.01c-0.1,0.25-0.2,0.51-0.31,0.76c-0.18,0.49-0.37,0.97-0.55,1.47c0,0.01-0.01,0.01-0.01,0.02c-0.03,0.06-0.05,0.12-0.1,0.16
				c-0.36,0.44-0.65,0.91-0.92,1.37c-0.1,0.17-0.18,0.34-0.27,0.51c-0.09,0.19-0.18,0.39-0.27,0.58c-0.02,0.05-0.04,0.1-0.06,0.16
				c-0.12,0.27-0.23,0.55-0.34,0.84c-0.07,0.18-0.13,0.37-0.18,0.54c-0.09,0.27-0.18,0.56-0.26,0.83c-0.09,0.3-0.17,0.59-0.25,0.89
				c-0.25,0.9-0.49,1.8-0.76,2.7c0.14-0.12,0.28-0.25,0.42-0.39c0.14-0.13,0.27-0.26,0.4-0.41c0.21-0.22,0.42-0.45,0.61-0.69
				c0.15-0.18,0.31-0.38,0.45-0.58c0.03-0.04,0.07-0.09,0.1-0.14c0.12-0.17,0.24-0.36,0.36-0.55c0.11-0.17,0.22-0.36,0.34-0.54
				c0.08-0.15,0.17-0.31,0.25-0.46c0.05-0.1,0.1-0.19,0.15-0.3c0.01-0.02,0.02-0.03,0.02-0.05c0.08-0.15,0.16-0.33,0.23-0.48
				c0.13-0.26,0.24-0.53,0.36-0.79c0.03-0.06,0.05-0.13,0.08-0.19c0.11-0.27,0.21-0.55,0.32-0.82c0.12-0.33,0.23-0.65,0.34-0.98
				c0.01-0.04,0.03-0.08,0.05-0.11c0.91-1.75,1.82-3.48,2.77-5.2c0.1-0.19,0.21-0.39,0.32-0.58c0.44-0.8,0.89-1.61,1.33-2.41
				c0.61-1.09,1.23-2.18,1.86-3.26c0.73-1.25,1.48-2.5,2.24-3.74c0.74-1.25,1.51-2.48,2.29-3.72c0.67-1.07,1.35-2.13,2.04-3.19
				c0.22-0.34,0.44-0.67,0.66-1.01c0.68-1.05,1.37-2.09,2.08-3.12c0.81-1.21,1.65-2.41,2.48-3.6c0.09,0.03,0.2,0.06,0.31,0.07
				c1.72-0.1,2.53-1.44,3.53-2.55c0.28-0.32,0.58-0.63,0.89-0.95c0.93-1.01,1.88-1.98,2.84-2.94c0.73-0.72,1.47-1.42,2.22-2.13
				c0.23-0.22,0.48-0.45,0.72-0.66c0.5-0.46,1.01-0.91,1.52-1.35s1.02-0.89,1.54-1.3c0.56-0.48,1.13-0.95,1.71-1.4
				c0.46-0.36,0.92-0.71,1.37-1.07c0.35-0.26,0.69-0.53,1.04-0.79c0.08-0.06,0.17-0.12,0.25-0.18c0.34-0.24,0.67-0.49,1.01-0.73
				c0.46-0.34,0.93-0.66,1.38-0.98c0.97-0.68,1.95-1.34,2.95-1.98c0.57-0.37,1.15-0.73,1.73-1.09c1.14-0.7,2.29-1.38,3.46-2.05
				c0.59-0.33,1.18-0.65,1.78-0.98c0.02-0.01,0.04-0.02,0.06-0.03c0.31-0.2,0.6-0.41,0.89-0.59c1.99-1.33,3.48-2.31,4.15-2.79
				c0.07-0.04,0.12-0.08,0.17-0.12c0.06-0.04,0.11-0.08,0.15-0.11l0.05-0.04l0.31-0.22l0.02-0.02c0.22-0.14,0.46-0.27,0.68-0.41
				c0.2-0.11,0.41-0.23,0.61-0.34c0.19-0.11,0.39-0.21,0.58-0.31c0.32-0.16,0.63-0.32,0.96-0.47c0.42-0.18,0.84-0.38,1.27-0.54
				c0.23-0.1,0.46-0.19,0.69-0.27c0.48-0.18,0.96-0.36,1.45-0.51c0.34-0.11,0.66-0.21,1-0.32c0.25-0.07,0.52-0.15,0.77-0.22
				c0.06-0.02,0.11-0.03,0.17-0.05c0.52-0.14,1.04-0.27,1.56-0.4c0.36-0.09,0.71-0.17,1.07-0.24c0.39-0.09,0.77-0.17,1.16-0.25
				c0.69-0.13,1.38-0.26,2.08-0.39c0.72-0.13,1.45-0.25,2.18-0.38c-4.8,2.11-9.62,4.21-14.41,6.31c-0.03,0.01-0.06,0.03-0.09,0.05
				c-1.05,0.62-2.08,1.26-3.1,1.9c-1.99,1.26-3.96,2.55-5.87,3.89c-0.04,0.03-0.07,0.05-0.11,0.08c-0.74,0.51-1.48,1.04-2.2,1.58
				c-0.06,0.05-0.13,0.09-0.19,0.14c-0.3,0.21-0.59,0.43-0.89,0.65c-0.64,0.47-1.27,0.95-1.9,1.42c-0.36,0.27-0.71,0.55-1.07,0.82
				c-0.07,0.05-0.13,0.1-0.2,0.15c-0.72,0.56-1.43,1.13-2.14,1.71c-0.93,0.75-1.84,1.52-2.74,2.29c-0.91,0.77-1.8,1.57-2.69,2.36
				c-0.01,0-0.01,0-0.02,0.01c-1.76,1.59-3.48,3.23-5.16,4.91c-0.84,0.84-1.68,1.7-2.5,2.56c-0.75,0.79-1.5,1.59-2.23,2.4
				c-0.13,0.14-0.26,0.3-0.41,0.45c-0.63,0.71-1.26,1.43-1.89,2.16c-0.11,0.12-0.22,0.25-0.34,0.39c-0.76,0.91-1.52,1.81-2.27,2.74
				c-0.55,0.68-1.1,1.37-1.64,2.08c-0.05,0.06-0.09,0.12-0.14,0.18c-0.08,0.09-0.15,0.19-0.22,0.28c-0.2,0.24-0.39,0.5-0.57,0.74
				c-0.63,0.82-1.25,1.65-1.86,2.49c-5.57,7.65-6.46,16.92-10.54,24.95c-8.41,16.48-14.76,34.02-25.03,49.56
				C532.51,242.93,519.73,253.49,502.16,255.82 M594.72,176.27c0.02,0.35,0.04,0.68,0.05,1.03c0.01,0.35,0.02,0.69,0.03,1.04
				c0.01,0.35,0.01,0.69,0.02,1.04v0.27c0.01,0.28,0.01,0.56,0.02,0.84c0,0.23,0.01,0.48,0.02,0.71c0.01,0.07,0,0.13-0.02,0.2
				c-0.01,0.03-0.01,0.06-0.02,0.1c-0.01,0.03-0.02,0.08-0.03,0.13c-0.02,0.05-0.03,0.1-0.04,0.16c-0.03,0.1-0.05,0.21-0.08,0.34
				c-0.01,0.03-0.01,0.05-0.02,0.07c-0.03,0.12-0.06,0.26-0.09,0.41c-0.01,0.04-0.02,0.08-0.03,0.12c-0.02,0.09-0.05,0.19-0.07,0.3
				c-0.04,0.14-0.07,0.3-0.11,0.45c-0.04,0.15-0.08,0.31-0.12,0.46c-0.01,0.03-0.02,0.07-0.03,0.1c-0.06,0.24-0.13,0.5-0.2,0.76
				c-0.11,0.4-0.22,0.8-0.36,1.22c-0.07,0.23-0.14,0.48-0.22,0.71c-0.01,0.05-0.02,0.09-0.04,0.14c-0.09,0.3-0.18,0.58-0.28,0.88
				c-0.19,0.57-0.41,1.15-0.63,1.71c-0.11,0.27-0.23,0.56-0.36,0.82c-0.23,0.53-0.49,1.03-0.75,1.49c-0.23,0.42-0.51,0.82-0.83,1.2
				c-2.25,2.66-4.35,6.16-8.55,4.51c-4.39-1.73-5.85-4.89-5.08-10.02c1.13-7.51,5.87-12.27,10.72-17.14
				c2.22-2.22,6.34,0.12,6.92,3.96c0.05,0.32,0.09,0.64,0.12,0.96c0,0.04,0.01,0.08,0.01,0.12v0.03
				C594.68,175.68,594.7,175.97,594.72,176.27 M531.18,271.39c-1.19,2.15-2.98,0.91-4.42,0.36c-4.64-1.76-8.61-4.55-11.66-8.51
				c-0.48-0.62-0.94-1.27-1.42-1.9c-0.15-0.21-0.32-0.43-0.49-0.63c-0.16-0.2-0.33-0.4-0.5-0.59c-0.11-0.12-0.22-0.24-0.34-0.36
				c-0.15-0.16-0.31-0.31-0.47-0.45c-0.11-0.1-0.22-0.19-0.34-0.28l-0.02-0.02c-0.04-0.04-0.09-0.08-0.13-0.11
				c-0.55-0.42-0.35-1.26,0.33-1.37c0.01-0.01,0.03-0.01,0.04-0.01c0.98-0.1,1.95-0.19,2.91-0.25c0.38-0.03,0.74-0.05,1.12-0.06
				c0.43-0.02,0.86-0.03,1.29-0.03h0.02c3.62,0,7.12,0.64,10.4,2.9c2.13,1.47,3.7,3.31,5.01,5.55
				C533.98,268.12,532.16,269.64,531.18,271.39 M647.15,194.95c-11.57,25.41-25.67,49.2-44.56,69.97c-0.42,0.47-0.84,0.92-1.27,1.36
				c-0.43,0.44-0.86,0.88-1.3,1.29s-0.88,0.83-1.32,1.23c-0.01,0-0.01,0-0.01,0.01c-0.45,0.4-0.9,0.78-1.35,1.15l-0.01,0.01
				c-0.56,0.46-1.13,0.91-1.71,1.33c-0.96,0.69-1.93,1.34-2.94,1.93c-0.25,0.14-0.51,0.3-0.76,0.43c-0.38,0.21-0.76,0.42-1.16,0.61
				c0,0-0.01,0-0.01,0.01c-0.39,0.19-0.77,0.38-1.17,0.55c-0.3,0.13-0.59,0.26-0.89,0.38c-0.15,0.07-0.3,0.12-0.45,0.18
				c-0.4,0.15-0.79,0.3-1.19,0.43c-0.21,0.07-0.44,0.14-0.66,0.21c-0.37,0.11-0.73,0.22-1.11,0.33c-0.37,0.09-0.73,0.18-1.11,0.27
				h-0.02c-0.38,0.08-0.76,0.16-1.15,0.23c-0.39,0.07-0.78,0.13-1.18,0.19c-0.4,0.05-0.79,0.1-1.2,0.14
				c-0.16,0.02-0.34,0.04-0.51,0.04c-0.02,0.01-0.04,0.01-0.06,0.01c-0.73,0.06-1.5,0.09-2.26,0.1c-0.04,0-0.08,0-0.11-0.01
				c-1.61-0.16-3.17-0.44-4.72-0.79c-4.57-1.06-9-2.73-13.56-3.78h-0.02c-0.04-0.01-0.07-0.01-0.1-0.02h-0.02
				c-5.62-0.96-11.18-2.71-16.89-0.32c-1.11,0.47-1.81,0.21-1.6-1.74c0.77-6.9,1.38-13.94-4.98-19.07
				c-0.83-0.67-0.47-1.47-0.03-2.24c7.98-14.47,13.47-30.24,23.1-43.84c0.39-0.55,0.59-1.23,1.46-1.49c1.3,3.53-1.19,5.58-2.54,7.95
				c-1.52,2.68-2.67,5.46-3.41,8.42c-0.13,0.54-0.27,1.08-0.4,1.62c-0.06,0.27-0.12,0.54-0.18,0.81c-0.06,0.27-0.11,0.55-0.16,0.82
				c-0.05,0.27-0.1,0.54-0.14,0.81s-0.07,0.55-0.1,0.82c-0.02,0.23-0.04,0.47-0.06,0.69c-0.01,0.06-0.01,0.13-0.01,0.19
				c-0.01,0.25-0.02,0.5-0.02,0.75c0,0.2,0,0.41,0.01,0.62c0.01,0.2,0.03,0.41,0.04,0.61c0.02,0.26,0.06,0.54,0.1,0.8
				c0,0.02,0.01,0.05,0.02,0.07l0.01,0.01c0.06,0.24,0.23,0.44,0.48,0.52c0.02,0.01,0.04,0.01,0.06,0.02
				c0.11,0.03,0.22,0.04,0.33,0.04c0.07,0,0.13-0.01,0.2-0.02c0.03,0,0.05-0.01,0.08-0.02c0.09-0.02,0.18-0.05,0.27-0.09h0.01
				c0.06-0.02,0.12-0.05,0.17-0.09c0.32-0.18,0.6-0.46,0.89-0.75c0.14-0.15,0.28-0.3,0.43-0.45c0.07-0.07,0.15-0.15,0.22-0.21
				l0.16-0.16c0.07-0.05,0.13-0.1,0.19-0.15c0.06-0.05,0.13-0.1,0.19-0.14c0.07-0.05,0.13-0.09,0.2-0.12
				c0.14-0.07,0.28-0.12,0.44-0.15c0.15-0.03,0.31-0.03,0.47,0c0.16,0.03,0.33,0.09,0.51,0.19c0.09,0.04,0.18,0.1,0.27,0.17
				c0.12,0.09,0.25,0.2,0.39,0.34c0.11,0.98,0.08,1.9-0.07,2.8v0.01c-0.3,1.83-1.08,3.52-2.18,5.15c-0.76,1.13-1.95,3.5-2.8,5.23
				c-0.01,0.01-0.01,0.03-0.01,0.04c-0.34,0.68-0.61,1.26-0.78,1.62c-0.03,0.05-0.05,0.09-0.07,0.13c-0.03,0.06-0.06,0.11-0.09,0.17
				c-0.16,0.46-1.25,9.5-0.56,13.71c0.02,0.14,0.05,0.27,0.08,0.42c0.02,0.34,0.05,0.67,0.1,1.01c0.01,0.11,0.03,0.22,0.05,0.34
				c0.04,0.22,0.08,0.45,0.14,0.67c0.04,0.13,0.08,0.26,0.12,0.41c0.04,0.13,0.1,0.27,0.15,0.41c0.02,0.06,0.05,0.13,0.08,0.19
				c0.03,0.08,0.07,0.16,0.11,0.24c0.02,0.04,0.04,0.07,0.06,0.11c0.1,0.19,0.22,0.38,0.35,0.57c0.07,0.1,0.13,0.19,0.21,0.3
				c0.07,0.09,0.14,0.18,0.22,0.28c0.36,0.45,1.08,0.32,1.28-0.22c0.14-0.39,0.3-0.76,0.47-1.12c0.08-0.2,0.17-0.4,0.27-0.58
				c0.06-0.14,0.14-0.28,0.21-0.42c0.07-0.15,0.15-0.3,0.23-0.43c0.11-0.2,0.22-0.39,0.35-0.57c0.11-0.18,0.23-0.37,0.36-0.54
				c0.22-0.33,0.46-0.63,0.7-0.93c0.13-0.16,0.27-0.33,0.43-0.49c0.13-0.16,0.28-0.32,0.44-0.46c0.3-0.3,0.6-0.57,0.92-0.83
				c0.18-0.15,0.37-0.3,0.56-0.43c0.02-0.02,0.05-0.04,0.07-0.05c0.13-0.1,0.25-0.19,0.39-0.27c0.23-0.16,0.47-0.32,0.72-0.46
				c0.01,0,0.01-0.01,0.02-0.01c0.14-0.09,0.3-0.17,0.45-0.25c0.13-0.07,0.26-0.14,0.41-0.21c0.18-0.09,0.38-0.18,0.57-0.26
				c0.16-0.08,0.32-0.14,0.48-0.21c0.14-0.06,0.28-0.11,0.43-0.16c0.18-0.07,0.38-0.14,0.57-0.2c0.27-0.09,0.55-0.18,0.83-0.26
				c0.31-0.08,0.6-0.16,0.92-0.23c0.26-0.07,0.54-0.13,0.81-0.18c0.3-0.06,0.59-0.11,0.9-0.16c0.15-0.03,0.31-0.05,0.46-0.07
				c0.35-0.05,0.69-0.09,1.04-0.13c0.2-0.02,0.4-0.04,0.59-0.05c0.44-0.04,0.89-0.07,1.33-0.09c1.69-0.08,3.73-1.2,4.7,1.43
				c1.65,4.5,5.34,4.77,9.16,3.92c0.76-0.17,1.52-0.37,2.27-0.58c0.35-0.09,0.69-0.18,1.04-0.28c0.35-0.1,0.69-0.2,1.04-0.31
				c0.94-0.28,1.87-0.59,2.81-0.89c0.02-0.01,0.04-0.02,0.06-0.02c0.93-0.31,1.85-0.6,2.78-0.9c0.48-0.15,0.95-0.31,1.42-0.45h0.01
				c0.07-0.02,0.13-0.03,0.19-0.03c0.13,0,0.26,0,0.39-0.02c0.22,0,0.44-0.01,0.65-0.03c0.31-0.02,0.61-0.06,0.91-0.1
				c0.22-0.03,0.45-0.07,0.66-0.12c0.02,0,0.04-0.01,0.06-0.02c0.25-0.04,0.5-0.1,0.74-0.17c0.08-0.02,0.16-0.04,0.24-0.06
				c0.27-0.08,0.54-0.16,0.8-0.26c0.02-0.01,0.05-0.02,0.08-0.03c0.1-0.03,0.2-0.07,0.32-0.12c0.1-0.04,0.2-0.09,0.31-0.13
				c0.02,0,0.03-0.01,0.05-0.02s0.03-0.01,0.05-0.02c0.14-0.07,0.28-0.13,0.43-0.2c0.01-0.01,0.03-0.01,0.04-0.02
				c0.18-0.08,0.35-0.16,0.52-0.27c0.01,0,0.03-0.01,0.04-0.02c0.24-0.13,0.49-0.27,0.72-0.43c0.28-0.18,0.57-0.39,0.84-0.59
				c0.25-0.19,0.5-0.4,0.74-0.61c0.23-0.2,0.47-0.43,0.7-0.65c0.22-0.21,0.44-0.44,0.64-0.67c0.83-0.92,1.59-1.95,2.26-3.06
				c0.39-0.64,0.76-1.28,1.14-1.93c0.6-1.04,1.19-2.1,1.78-3.15c0.19-0.36,0.4-0.71,0.6-1.07c0.32-0.55,0.63-1.11,0.96-1.66
				c0.3-0.5,0.6-1,0.91-1.5c0.28-0.47,0.58-0.93,0.88-1.38c0.16-0.25,0.34-0.51,0.51-0.76c0.14-0.21,0.3-0.44,0.45-0.65
				c0.26-0.38,0.53-0.75,0.81-1.12c0.27-0.37,0.56-0.73,0.85-1.1c0.02-0.02,0.03-0.04,0.05-0.07c0.31-0.49,0-1.17-0.59-1.19h-0.08
				c-0.02,0-0.04,0-0.05,0.01c-0.05,0-0.1,0-0.14,0.01c-0.07,0-0.13,0.01-0.19,0.03c-0.07,0.01-0.13,0.03-0.2,0.04
				c-0.93,0.27-1.56,1.1-2.25,1.66c-3.43,2.83-7.45,4.68-11.48,6.31c-2.72,1.09-6.44,2.08-8.35-0.69c-1.78-2.59,1.02-4.88,2.81-6.89
				c0.16-0.17,0.31-0.36,0.45-0.54c0.11-0.15,0.21-0.3,0.33-0.45c0.4-0.28,0.75-0.55,1.14-0.82c1.71-0.57,3.42-1.14,5.12-1.71
				c0.04-0.01,0.08-0.02,0.12-0.03c0.34-0.04,0.66-0.1,0.99-0.15c0.25-0.04,0.51-0.09,0.76-0.14c0.06-0.01,0.12-0.02,0.18-0.03
				c0.04-0.01,0.07-0.02,0.09-0.02c0.3-0.06,0.59-0.13,0.88-0.19c0.34-0.08,0.67-0.17,1.01-0.26c0.21-0.05,0.43-0.11,0.64-0.18
				c0.21-0.06,0.43-0.13,0.63-0.19c0.25-0.08,0.51-0.16,0.76-0.26c0.23-0.07,0.47-0.15,0.69-0.24c0.56-0.2,1.11-0.43,1.65-0.67
				c0.3-0.13,0.59-0.26,0.89-0.41c0.1-0.05,0.2-0.1,0.31-0.15c0.02-0.01,0.05-0.02,0.07-0.04c0.25-0.11,0.51-0.24,0.75-0.38
				c0.05-0.03,0.09-0.05,0.14-0.08c0.06-0.02,0.12-0.05,0.17-0.08c0.34-0.18,0.66-0.37,0.99-0.56c0.11-0.06,0.22-0.12,0.34-0.2
				c0.27-0.15,0.54-0.32,0.79-0.48c0.36-0.22,0.71-0.46,1.06-0.7c0.18-0.12,0.38-0.25,0.56-0.4c0.24-0.16,0.48-0.34,0.71-0.52
				c0.09-0.06,0.17-0.13,0.25-0.19c0.34-0.26,0.67-0.53,1.01-0.8c0.32-0.26,0.63-0.54,0.95-0.81c0.07-0.06,0.13-0.11,0.19-0.17
				c0.32-0.28,0.63-0.58,0.95-0.89c0.01,0,0.01,0,0.01-0.01c0.34-0.33,0.66-0.66,0.99-1c0.33-0.34,0.64-0.68,0.95-1.04
				c0.63-0.7,1.22-1.42,1.78-2.18c0.28-0.39,0.56-0.76,0.82-1.15c0.54-0.77,1.04-1.56,1.51-2.37c0.23-0.41,0.46-0.81,0.67-1.23
				c0.22-0.41,0.43-0.82,0.63-1.25c0.18-0.4,0.37-0.78,0.54-1.19c0.17-0.4,0.33-0.79,0.48-1.18c0.07-0.19,0.14-0.39,0.21-0.58
				c0.09-0.25,0.18-0.51,0.26-0.76c0.01-0.02,0.01-0.05,0.02-0.07c0.04-0.09,0.07-0.18,0.09-0.27c0.12-0.36,0.22-0.71,0.33-1.07
				c0.03-0.08,0.05-0.16,0.06-0.24c0.02-0.05,0.03-0.1,0.04-0.15c0.01-0.02,0.01-0.03,0.02-0.05c0.07-0.26,0.14-0.54,0.2-0.8
				c0.01-0.03,0.01-0.07,0.02-0.1c0.03-0.08,0.05-0.17,0.06-0.25c0.08-0.36,0.16-0.71,0.22-1.07c0.02-0.1,0.04-0.2,0.05-0.31
				c0-0.02,0.01-0.03,0.01-0.05v-0.03c0.01-0.04,0.02-0.09,0.03-0.13c0.01-0.09,0.03-0.17,0.05-0.26c0.01-0.04,0.01-0.09,0.01-0.13
				c0-0.64-0.8-1.03-1.3-0.55c-1.06,1.02-2.14,2.06-3.34,2.92c-2.78,2-5.74,1.92-8.32-0.35c-2.91-2.57-0.57-4.84,0.72-7.1
				c0.93-1.61,2.9-2.24,3.64-4.1c2.5-6.25,7.64-9.66,13.61-11.92c0.88-0.33,1.77-0.67,2.68-0.9h0.01c0.9-0.1,1.81-0.15,2.71-0.14
				c0.01-0.01,0.02,0,0.02,0c0.73,0.14,1.46,0.46,2.17,1.03c0.14,0.11,0.27,0.23,0.42,0.37
				C652.94,183.51,649.76,189.22,647.15,194.95 M675.94,158.79c-2.21,9.42-6.73,16.39-15.69,20.19c-4.51,1.91-7.09,5.06-14.57-2.13
				c-1.09-1.1-2.71-0.77-4.28-0.54c-3.57,0.51-6.54,1.69-9.11,3.36c-0.02,0-0.04,0.02-0.06,0.03c-3.91,2.1-7.19,5.23-9.12,9.06
				c-1.14,2.27-2.8,4.2-3.86,6.5c-0.09,0.19-0.17,0.38-0.24,0.57c-0.15,0.24-0.31,0.5-0.46,0.74c-1.01,1.67-0.68,3.36,0.48,4.66
				v0.01c0.68,1.26,1.91,2.26,3.66,2.91c5.05,1.88,5.79,4.51,2.15,8.9c-5.12,6.2-11.66,10.31-19.03,13.14
				c-0.28,0.06-0.58,0.11-0.88,0.16c-0.33,0.08-0.65,0.16-0.97,0.24c-0.32-0.16-0.63-0.33-0.95-0.48c-0.08-0.05-0.17-0.08-0.27-0.09
				h-0.02c-0.15-0.02-0.31-0.03-0.44-0.03c-0.61,0-1.13,0.15-1.6,0.41c-0.19,0.1-0.37,0.21-0.54,0.34
				c-0.26,0.19-0.51,0.41-0.74,0.63c-0.48,0.46-0.93,0.96-1.4,1.39c-0.06,0.05-0.12,0.11-0.18,0.16c-1.16,0.93-2.47,1.72-3.44,2.82
				c-1.86,2.12-4.31,4.57-2.96,7.42c1.27,2.69,4.67,2.17,7.29,2.11c3.53-0.09,6.99-0.77,11.07-2.23c0.38-0.13,0.76-0.27,1.16-0.43
				c-0.23,0.38-0.47,0.75-0.69,1.12c-3.11,5.05-5.82,9.62-10.93,10.02c-2.94,0.22-4.58,1.28-6.56,2.68
				c-0.16,0.04-0.34,0.05-0.49,0.11c-5.36,2.04-10.91,5.13-14.49-2.71c-0.21-0.47-1.52-0.67-2.28-0.6
				c-0.28,0.03-0.57,0.05-0.86,0.07c-0.42,0.04-0.84,0.07-1.26,0.09c-1.53,0.1-3.06,0.18-4.57,0.34c-0.44,0.04-0.88,0.09-1.31,0.15
				c-0.44,0.05-0.88,0.12-1.3,0.2c-0.41,0.07-0.8,0.15-1.2,0.25c-1.38,0.33-2.71,0.79-3.94,1.51c-0.16,0.08-0.33,0.18-0.48,0.28
				c-0.18,0.11-0.36,0.22-0.53,0.35c-0.13,0.09-0.26,0.19-0.39,0.3c-0.14,0.1-0.28,0.21-0.43,0.35c-0.33,0.26-0.63,0.56-0.93,0.88
				c-0.12,0.12-0.24,0.25-0.36,0.39c-0.12,0.13-0.24,0.27-0.36,0.43c-0.12,0.14-0.23,0.3-0.35,0.46c-0.15,0.2-0.3,0.41-0.44,0.63
				c-0.14,0.21-0.28,0.44-0.42,0.67c-0.32,0.55-1.13,0.51-1.37-0.08c-0.26-0.61-0.48-1.14-0.69-1.64c-0.06-0.16-0.13-0.33-0.2-0.49
				c0-0.01-0.01-0.02-0.01-0.03c-0.03-0.08-0.05-0.17-0.05-0.26v-0.02c0.07-3.65,0.14-7.3,0.22-10.95v-0.01
				c2.55-3.47,5.34-6.79,6.77-10.94c-0.05,0-0.08,0-0.11-0.01c0.06-0.07,0.12-0.13,0.19-0.2c0.44-1.08,1.1-2.14,1.26-3.26
				c0.27-1.8,0.08-3.06-0.6-3.81c-0.05-0.07-0.11-0.13-0.18-0.18c-0.07-0.06-0.14-0.12-0.21-0.16c-0.58-0.38-1.37-0.51-2.4-0.41
				c-0.21,0.02-0.44,0.05-0.68,0.09c-0.19,0.03-0.4,0.07-0.61,0.12c-0.48,0.12-0.93-0.25-0.94-0.74v-0.05c0-0.02,0-0.05,0.01-0.07
				c0-0.16,0.01-0.32,0.03-0.47c0-0.08,0.01-0.16,0.02-0.24c0.02-0.19,0.05-0.38,0.08-0.56c0.03-0.21,0.07-0.43,0.12-0.63
				c0-0.02,0-0.04,0.01-0.05c0.04-0.2,0.09-0.41,0.15-0.6c0.04-0.17,0.09-0.35,0.15-0.51c0.42-1.27,1.03-2.45,1.74-3.58
				c0.11-0.18,0.23-0.36,0.36-0.54c0.48-0.72,1.01-1.42,1.54-2.11c2.68-3.43,4.02-7.26,4.55-11.52c0.18-1.5,0.44-2.96,0.75-4.4
				c0.1-0.48,0.21-0.96,0.34-1.43c0.12-0.47,0.24-0.94,0.38-1.39c0.17-0.57,0.35-1.13,0.54-1.69c0.09-0.28,0.19-0.57,0.3-0.84
				c0.07-0.21,0.15-0.43,0.23-0.64c0.1-0.25,0.2-0.51,0.31-0.76c0.07-0.17,0.14-0.36,0.22-0.53c0.1-0.26,0.22-0.53,0.35-0.78
				c0.07-0.16,0.15-0.34,0.22-0.5c0.11-0.25,0.23-0.5,0.37-0.74c0.1-0.23,0.22-0.46,0.35-0.69c0.07-0.14,0.14-0.27,0.22-0.42
				c0.15-0.31,0.33-0.61,0.5-0.91c0.05-0.09,0.1-0.18,0.15-0.27c0.21-0.36,0.43-0.71,0.65-1.07c0.24-0.4,0.51-0.8,0.78-1.2
				c0.32-0.47,0.64-0.94,1-1.39c0.23-0.33,0.48-0.65,0.73-0.97c0.42-0.53,1.27-0.28,1.36,0.37c0,0.01,0.01,0.02,0,0.03
				c0.01,0.01,0.01,0.03,0.01,0.04v0.13c0,1.08-0.71,1.91-0.96,2.76c-1.46,4.95-0.16,9.3,2.65,13.35c1.99,2.87,4.57,3.56,7.93,2.3
				c0.91-0.35,1.78-0.79,2.59-1.34c0.28-0.18,0.55-0.38,0.81-0.58c0.31-0.22,0.6-0.46,0.88-0.69c0.22-0.18,0.44-0.37,0.65-0.56
				c0.49-0.43,0.93-0.88,1.32-1.3c0.18-0.2,0.36-0.4,0.51-0.58c0.17-0.2,0.35-0.41,0.5-0.6c0.15-0.2,0.31-0.4,0.44-0.58
				c0.14-0.19,0.27-0.38,0.39-0.55c0.12-0.17,0.23-0.35,0.34-0.51c0.11-0.16,0.2-0.33,0.3-0.47c0.05-0.08,0.09-0.15,0.12-0.21
				c0.08-0.14,0.15-0.26,0.21-0.39c0.1-0.18,0.18-0.35,0.25-0.47c0.03-0.08,0.07-0.15,0.09-0.2c0.03-0.06,0.05-0.1,0.06-0.13v-0.01
				c0.01-0.02,0.01-0.03,0.02-0.05c0.01-0.02,0.01-0.04,0.02-0.06c0.01-0.03,0.01-0.06,0.02-0.1c0.06-0.28,0.19-0.92,0.36-1.73
				c0.08-0.39,0.16-0.81,0.24-1.25c0.15-0.75,0.31-1.56,0.46-2.35c0.01-0.02,0.02-0.05,0.02-0.08c0.06-0.27,0.11-0.55,0.16-0.82
				c0.01-0.01,0.01-0.02,0.01-0.03c0.08-0.42,0.16-0.82,0.23-1.2c0.17-0.88,0.32-1.61,0.41-2.04c0.01-0.06,0.02-0.12,0.03-0.16
				v-0.01c0.02-0.07,0.03-0.13,0.04-0.17v-0.02c0.01-0.03,0.01-0.04,0.02-0.06c0.1-0.3,0.2-0.63,0.3-1
				c0.09-0.38,0.17-0.78,0.25-1.21c0.01-0.09,0.05-0.18,0.1-0.26c0.08-0.13,0.16-0.27,0.23-0.41c0.09-0.16,0.17-0.33,0.23-0.49
				c0.11-0.23,0.19-0.46,0.26-0.69c0.16-0.55,0.27-1.11,0.34-1.68c-0.01-0.01,0-0.01,0-0.02c0.1-1.03,0.05-2.09-0.06-3.13
				c-0.02-0.23-0.05-0.46-0.08-0.69c-0.05-0.42-0.1-0.82-0.16-1.22c-0.01-0.05-0.01-0.11,0-0.17c0.11-1.52,0.31-3.08,0.61-4.65
				c0.03-0.17,0.06-0.36,0.1-0.53c0.05-0.26,0.1-0.54,0.17-0.8c0.1-0.5,0.22-0.99,0.36-1.49c0.05-0.19,0.1-0.38,0.15-0.56
				c0.13-0.49,0.27-0.97,0.44-1.46c0.37-1.16,0.8-2.31,1.3-3.44c0.13-0.28,0.25-0.57,0.39-0.84c1.06-2.24,2.38-4.38,3.98-6.31
				c0.4-0.48,0.81-0.95,1.25-1.39c1.29-1.36,2.76-2.59,4.4-3.65c8.08-5.26,16.13-10.4,23.44-17.84c-1.88,3.63-4.39,5.59-6.86,7.65
				c-5.59,4.66-9.7,10.21-9.66,17.91c0,0.06,0.01,0.12,0.02,0.17c0.03,0.14,0.05,0.27,0.08,0.42c0.05,0.23,0.1,0.47,0.18,0.68
				c0.05,0.17,0.11,0.33,0.18,0.48v0.01c-0.54,2.71-0.68,5.37-0.17,7.94c0.06,0.32,0.14,0.64,0.22,0.96
				c0.12,0.47,0.27,0.94,0.45,1.39c0.15,0.4,0.32,0.78,0.51,1.17c0.18,0.42,0.41,0.83,0.65,1.23c0.06,0.11,0.13,0.22,0.2,0.34
				c0.3,0.49,0.63,0.97,1.01,1.43c0.02,0.02,0.04,0.04,0.05,0.07c0.47,0.79,0.94,1.6,1.4,2.4c1.76,2.81,4.06,3.79,7.26,2.34
				c2.92-1.32,3.97-3.14,2.73-6.34c-0.42-1.09,0.18-2.56,0.34-3.87v-0.01c0.01-0.05,0.02-0.08,0.03-0.12
				c0.21-0.72,0.47-1.42,0.73-2.11c0.12-0.34,0.26-0.67,0.4-1c0.15-0.37,0.32-0.72,0.49-1.08c0.15-0.34,0.33-0.67,0.5-1
				c0.28-0.55,0.6-1.08,0.93-1.61c0.15-0.24,0.32-0.49,0.48-0.73c0.16-0.25,0.34-0.5,0.52-0.74c0.19-0.27,0.4-0.54,0.61-0.8
				c0.03-0.04,0.06-0.08,0.09-0.12c0.08-0.1,0.16-0.2,0.25-0.31c0.25-0.31,0.51-0.6,0.78-0.89c0.2-0.22,0.42-0.45,0.64-0.66
				c0.21-0.21,0.43-0.42,0.65-0.62c0.01-0.01,0.03-0.02,0.04-0.03c0.22-0.2,0.45-0.41,0.68-0.6c0.21-0.18,0.43-0.36,0.64-0.53
				c0.57-0.45,1.16-0.86,1.78-1.26c0.41,0.33,0.58,0.46,0.79,0.63c0.01,0.01,0.02,0.03,0.05,0.04c0.14,0.1,0.31,0.23,0.58,0.45
				c-0.01,0.04-0.03,0.09-0.04,0.13c-0.37,1.1-0.68,2.21-1.1,3.28c-3.66,9.33-0.86,12.9,8.98,11.45c2.9-0.56,4.86-2.52,6.9-4.42
				h0.01c0,0,0,0.01,0.01,0.01c2.04,0.1,3.5-1.13,4.91-2.28c6.3-5.17,12.06-11.13,15.46-18.4c0.11-0.24,0.23-0.49,0.36-0.73
				c3.66-7.38,10.39-14.45,17.14-19.3c0.15-0.12,0.31-0.22,0.46-0.34c0.33-0.22,0.67-0.42,1.05-0.54c1.53-0.54,2.57-0.73,3.09-1
				c0.02,0,0.03-0.01,0.05-0.02c1-0.5,2.01-0.9,3.27-0.46C688.7,126.99,680.02,141.4,675.94,158.79"/>
			<path style="clip-path:url(#SVGID_00000113340893966813634930000011934730452265309109_);fill:#FFFFFF;" d="M688.7,95.44
				c-0.04,0.14-0.09,0.28-0.14,0.43c-0.82,2.3-2.94,4.87-5.43,7.02c-1.11,0.62-2.37,1.08-3.8,1.36c-1.15,0.97-2.29,1.92-3.44,2.89
				c-1.42,0.26-2.54,0.84-3.42,1.67c-0.28,0.23-0.54,0.52-0.77,0.82c-0.12,0.14-0.23,0.3-0.34,0.45c-0.28,0.41-0.54,0.85-0.75,1.32
				c-0.03,0.05-0.05,0.11-0.08,0.17c0,0.01,0,0.02-0.01,0.03c-0.01,0.02-0.02,0.03-0.02,0.05c-0.06,0.13-0.12,0.28-0.17,0.42
				c-0.1,0.24-0.19,0.48-0.26,0.73c-0.1,0.27-0.18,0.55-0.26,0.83c-1.54,5.56-4.96,9.01-10.79,8.56c-3.08-0.24-2.32,2.23-3.47,3.26
				c-1.16,1.04-1.5,3.01-3.79,2.09c-2.15-0.85-2.75-2.44-2.25-4.45c1.01-4.02,3.98-6.76,6.34-9.98c4.53-6.17,15.25-9.08,21.29-12.86
				c0.16-0.07,0.33-0.14,0.49-0.22l0.01-0.01c3.08-0.63,5.27-2.93,7.72-4.75c1.12-0.83,2.25-2.32,3.22-0.15
				c0.02,0.05,0.04,0.1,0.07,0.16C688.66,95.33,688.68,95.38,688.7,95.44"/>
			<path style="clip-path:url(#SVGID_00000113340893966813634930000011934730452265309109_);fill:#FFFFFF;" d="M531.18,271.39
				c-1.19,2.15-2.98,0.91-4.42,0.36c-4.64-1.76-8.61-4.55-11.66-8.51c-0.48-0.62-0.94-1.27-1.42-1.9c-0.15-0.21-0.32-0.43-0.49-0.63
				c-0.16-0.2-0.33-0.4-0.5-0.59c-0.11-0.12-0.22-0.24-0.34-0.36c-0.15-0.16-0.31-0.31-0.47-0.45c-0.11-0.1-0.22-0.19-0.34-0.28
				l-0.02-0.02c-0.04-0.04-0.09-0.08-0.13-0.11c-0.55-0.42-0.35-1.26,0.33-1.37c0.01-0.01,0.03-0.01,0.04-0.01
				c0.98-0.1,1.95-0.19,2.91-0.25c0.38-0.03,0.74-0.05,1.12-0.06c0.43-0.02,0.86-0.03,1.29-0.03h0.02c3.62,0,7.12,0.64,10.4,2.9
				c2.13,1.47,3.7,3.31,5.01,5.55C533.98,268.12,532.16,269.64,531.18,271.39"/>
			<path style="clip-path:url(#SVGID_00000113340893966813634930000011934730452265309109_);fill:#FFFFFF;" d="M705.21,118.43
				c-16.51,8.56-25.19,22.98-29.27,40.37c-2.21,9.42-6.73,16.39-15.69,20.19c-4.51,1.91-8.85,1.97-12.58-1.85
				c-0.03-0.13-0.06-0.26-0.1-0.38c-0.05-0.01-0.1-0.02-0.15-0.04c-0.25,0.06-0.48,0.14-0.66,0.26c-0.37-0.05-0.72-0.09-1.08-0.12
				c-1.09-1.1-2.71-0.77-4.28-0.54c-3.57,0.51-6.54,1.69-9.11,3.36c-0.02,0-0.04,0.02-0.06,0.03c-3.91,2.1-7.19,5.23-9.12,9.06
				c-1.14,2.27-2.8,4.2-3.86,6.5c-0.09,0.19-0.17,0.38-0.24,0.57c-0.15,0.24-0.31,0.5-0.46,0.74c-1.01,1.67-0.68,3.36,0.48,4.66
				v0.01c0.68,1.26,1.91,2.26,3.66,2.91c5.05,1.88,5.79,4.51,2.15,8.9c-5.12,6.2-11.66,10.31-19.03,13.14
				c-0.28,0.06-0.58,0.11-0.88,0.16c-0.33,0.08-0.65,0.16-0.97,0.24c-0.32-0.16-0.63-0.33-0.95-0.48c-0.04-0.03-0.09-0.05-0.13-0.07
				c-0.05-0.01-0.09-0.01-0.14-0.02h-0.02c-0.15-0.02-0.31-0.03-0.44-0.03c-0.61,0-1.13,0.15-1.6,0.41
				c-0.19,0.1-0.37,0.21-0.54,0.34c-0.26,0.19-0.51,0.41-0.74,0.63c-0.48,0.46-0.93,0.96-1.4,1.39c-0.06,0.05-0.12,0.11-0.18,0.16
				c-1.16,0.93-2.47,1.72-3.44,2.82c-1.86,2.12-4.31,4.57-2.96,7.42c1.27,2.69,4.67,2.17,7.29,2.11c3.53-0.09,6.99-0.77,11.07-2.23
				c0.12,0.12,0.23,0.26,0.34,0.44c0.05,0.08,0.09,0.17,0.13,0.25c-3.11,5.05-5.82,9.62-10.93,10.02c-2.94,0.22-4.58,1.28-6.56,2.68
				c-0.16,0.04-0.34,0.05-0.49,0.11c-5.36,2.04-10.91,5.13-14.49-2.71c-0.21-0.47-1.52-0.67-2.28-0.6
				c-0.28,0.03-0.57,0.05-0.86,0.07c-0.42,0.04-0.84,0.07-1.26,0.09c-1.53,0.1-3.06,0.18-4.57,0.34c-0.44,0.04-0.88,0.09-1.31,0.15
				c-0.44,0.05-0.88,0.12-1.3,0.2c-0.41,0.07-0.8,0.15-1.2,0.25c-1.38,0.33-2.71,0.79-3.94,1.51c-0.16,0.08-0.33,0.18-0.48,0.28
				c-0.18,0.1-0.36,0.22-0.53,0.35c-0.13,0.09-0.26,0.19-0.39,0.3c-0.14,0.1-0.28,0.21-0.43,0.35c-0.33,0.26-0.63,0.56-0.93,0.88
				c-0.12,0.12-0.24,0.25-0.36,0.39c-0.12,0.13-0.24,0.27-0.36,0.43c-0.12,0.14-0.23,0.3-0.35,0.46c-0.15,0.2-0.3,0.41-0.44,0.63
				c-0.14,0.21-0.28,0.44-0.42,0.67c-0.32,0.55-1.13,0.51-1.37-0.08c-0.26-0.61-0.48-1.14-0.69-1.64c-0.06-0.16-0.13-0.33-0.2-0.49
				c0-0.01-0.01-0.02-0.01-0.03c-0.03-0.08-0.05-0.17-0.05-0.26v-0.02c0.07-3.65,0.14-7.3,0.22-10.95v-0.01
				c2.55-3.47,5.34-6.79,6.77-10.94h0.01c0.02-0.07,0.05-0.14,0.07-0.21c0.44-1.08,1.1-2.14,1.26-3.26c0.27-1.8,0.08-3.06-0.6-3.81
				c-0.05-0.07-0.11-0.13-0.18-0.18c-0.07-0.06-0.14-0.12-0.21-0.16c-0.58-0.38-1.37-0.51-2.4-0.41c-0.21,0.01-0.45,0.05-0.68,0.09
				c-0.19,0.03-0.4,0.07-0.61,0.12c-0.48,0.12-0.93-0.25-0.94-0.74v-0.05c0-0.02,0-0.05,0.01-0.07c0-0.16,0.01-0.32,0.03-0.47
				c0-0.08,0.01-0.16,0.02-0.24c0.02-0.19,0.05-0.38,0.08-0.56c0.03-0.21,0.07-0.43,0.12-0.63c0-0.02,0-0.04,0.01-0.05
				c0.04-0.2,0.09-0.41,0.15-0.6c0.04-0.17,0.09-0.35,0.15-0.51c0.42-1.27,1.03-2.45,1.74-3.58c0.11-0.18,0.23-0.36,0.36-0.54
				c0.48-0.72,1.01-1.42,1.54-2.11c2.68-3.43,4.02-7.26,4.55-11.52c0.18-1.5,0.44-2.96,0.75-4.4c0.1-0.48,0.21-0.96,0.34-1.43
				c0.12-0.47,0.24-0.94,0.38-1.39c0.17-0.57,0.35-1.13,0.54-1.69c0.09-0.28,0.19-0.57,0.3-0.84c0.07-0.21,0.15-0.43,0.23-0.64
				c0.1-0.25,0.2-0.51,0.31-0.76c0.07-0.17,0.14-0.36,0.22-0.53c0.11-0.26,0.22-0.53,0.35-0.78c0.07-0.16,0.15-0.34,0.22-0.5
				c0.11-0.25,0.23-0.5,0.37-0.74c0.1-0.23,0.22-0.46,0.35-0.69c0.07-0.14,0.14-0.27,0.22-0.42c0.15-0.31,0.33-0.61,0.5-0.91
				c0.05-0.09,0.1-0.18,0.15-0.27c0.21-0.36,0.43-0.71,0.65-1.07c0.24-0.4,0.51-0.8,0.78-1.2c0.32-0.47,0.64-0.94,1-1.39
				c0.23-0.33,0.48-0.65,0.73-0.97c0.42-0.53,1.27-0.28,1.36,0.37c0,0.01,0.01,0.02,0,0.03c0.01,0.06,0.01,0.11,0.01,0.17
				c0,1.08-0.71,1.91-0.96,2.76c-1.46,4.95-0.16,9.3,2.65,13.35c1.99,2.87,4.57,3.56,7.93,2.3c0.91-0.35,1.78-0.79,2.59-1.34
				c0.28-0.18,0.55-0.38,0.81-0.58c0.31-0.22,0.6-0.46,0.88-0.69c0.22-0.18,0.45-0.37,0.65-0.56c0.49-0.43,0.93-0.88,1.32-1.3
				c0.18-0.2,0.36-0.4,0.51-0.58c0.18-0.2,0.35-0.41,0.5-0.6c0.16-0.19,0.31-0.39,0.44-0.58c0.14-0.19,0.27-0.38,0.39-0.55
				c0.13-0.18,0.24-0.35,0.34-0.51c0.11-0.16,0.21-0.33,0.3-0.47c0.05-0.08,0.09-0.15,0.12-0.21c0.08-0.14,0.15-0.26,0.21-0.39
				c0.1-0.18,0.18-0.35,0.25-0.47c0.03-0.08,0.07-0.15,0.09-0.2c0.03-0.06,0.05-0.1,0.06-0.13v-0.01c0.01-0.02,0.01-0.03,0.02-0.05
				c0.01-0.02,0.01-0.04,0.02-0.06c0.01-0.03,0.01-0.06,0.02-0.1c0.06-0.28,0.19-0.92,0.36-1.73c0.2-1.03,0.46-2.33,0.7-3.6
				c0.01-0.02,0.02-0.05,0.02-0.08c0.06-0.27,0.11-0.55,0.16-0.82c0.01-0.01,0.01-0.02,0.01-0.03c0.08-0.42,0.16-0.82,0.23-1.2
				c0.17-0.88,0.32-1.61,0.41-2.04c0.01-0.06,0.02-0.12,0.03-0.16v-0.01c0.02-0.07,0.03-0.13,0.04-0.17v-0.02
				c0.01-0.03,0.01-0.04,0.02-0.06c0.11-0.3,0.21-0.63,0.3-1c0.09-0.38,0.17-0.78,0.25-1.21c0.01-0.09,0.05-0.18,0.1-0.26
				c0.08-0.13,0.16-0.27,0.23-0.41c0.09-0.16,0.17-0.33,0.23-0.49c0.11-0.23,0.19-0.46,0.26-0.69c0.17-0.54,0.27-1.1,0.34-1.68
				c-0.01-0.01,0-0.01,0-0.02c0.1-1.03,0.05-2.09-0.06-3.13c-0.02-0.23-0.04-0.47-0.08-0.69c-0.05-0.42-0.1-0.82-0.16-1.22
				c-0.01-0.05-0.01-0.11,0-0.17c0.11-1.52,0.31-3.08,0.61-4.65c0.03-0.17,0.06-0.36,0.1-0.53c0.05-0.26,0.1-0.54,0.17-0.8
				c0.1-0.5,0.22-0.99,0.36-1.49c0.05-0.19,0.1-0.38,0.15-0.56c0.13-0.49,0.28-0.98,0.44-1.46c0.37-1.16,0.8-2.31,1.3-3.44
				c0.13-0.28,0.25-0.57,0.39-0.84c1.06-2.24,2.38-4.38,3.98-6.31c0.4-0.48,0.81-0.95,1.25-1.39c1.29-1.36,2.76-2.59,4.4-3.65
				c8.08-5.26,16.13-10.4,23.44-17.84c-1.88,3.63-4.39,5.59-6.86,7.65c-5.59,4.66-9.7,10.21-9.66,17.91v0.09
				c0.01,0.03,0.01,0.05,0.02,0.08c0.03,0.14,0.05,0.27,0.08,0.42c0.05,0.23,0.1,0.47,0.18,0.68c0.05,0.17,0.11,0.33,0.18,0.48v0.01
				c-0.54,2.71-0.68,5.37-0.17,7.94c0.06,0.32,0.14,0.64,0.22,0.96c0.12,0.47,0.27,0.94,0.45,1.39c0.15,0.4,0.32,0.78,0.51,1.17
				c0.18,0.42,0.41,0.83,0.65,1.23c0.06,0.11,0.13,0.22,0.2,0.34c0.3,0.49,0.63,0.97,1.01,1.43c0.02,0.02,0.04,0.04,0.05,0.07
				c0.47,0.79,0.94,1.6,1.4,2.4c1.76,2.81,4.06,3.79,7.26,2.34c2.92-1.32,3.97-3.14,2.73-6.34c-0.42-1.09,0.18-2.56,0.34-3.87v-0.01
				c0.01-0.05,0.02-0.08,0.03-0.12c0.21-0.72,0.47-1.42,0.73-2.11c0.12-0.34,0.26-0.67,0.4-1c0.15-0.37,0.32-0.72,0.49-1.08
				c0.15-0.34,0.33-0.67,0.5-1c0.28-0.55,0.6-1.08,0.93-1.61c0.15-0.24,0.32-0.49,0.48-0.73c0.16-0.25,0.34-0.5,0.52-0.74
				c0.19-0.27,0.4-0.54,0.61-0.8c0.03-0.04,0.06-0.08,0.09-0.12c0.08-0.1,0.16-0.2,0.25-0.31c0.25-0.31,0.51-0.6,0.78-0.89
				c0.2-0.22,0.42-0.45,0.64-0.66c0.21-0.21,0.43-0.42,0.65-0.62c0.01-0.01,0.03-0.02,0.04-0.03c0.22-0.2,0.45-0.41,0.68-0.6
				c0.21-0.18,0.43-0.36,0.64-0.53c0.57-0.45,1.16-0.86,1.78-1.26c0.41,0.33,0.58,0.46,0.79,0.63c0.01,0.01,0.02,0.03,0.05,0.04
				c0.17,0.19,0.36,0.39,0.54,0.58c-0.37,1.1-0.68,2.21-1.1,3.28c-3.66,9.33-0.86,12.9,8.98,11.45c2.9-0.56,4.86-2.52,6.9-4.42h0.01
				c0,0,0,0.01,0.01,0.01c2.04,0.1,3.5-1.13,4.91-2.28c6.3-5.17,12.06-11.13,15.46-18.4c0.11-0.24,0.23-0.49,0.36-0.73
				c3.66-7.38,10.39-14.45,17.14-19.3c0.98-0.16,1.91-0.69,2.85-1.04C700.74,119.53,703.96,117.99,705.21,118.43"/>
		</g>
	</g>
</g>
<path class="st4" d="M225.17,78c0.03-0.09,0.05-0.19,0.06-0.29c0.02-0.12,0.02-0.23,0.03-0.34"/>
<path class="st4" d="M443.65,242.48c-0.2-0.01-0.39-0.07-0.56-0.19"/>
<path class="st4" d="M477.1,249.84c-0.1,0.19-0.16,0.39-0.19,0.61c-0.13,0.89,0.22,2.07,1.03,3.51c2.1,3.75,1.15,7.13-0.69,10.37
	c-4.52,7.99-10.89,14.14-19.11,18.35"/>
<path class="st4" d="M484.24,234.15c1.12-1.97,2.07-3.63,3.04-5.32c-0.58-0.27-0.86-0.51-1.14-0.51
	c-8.82-0.02-17.63,0.11-26.44-0.09c-2.83-0.07-4.59,0.92-6.29,3.02c-2.95,3.65-6.14,7.11-9.76,11.23c0.78,0.07,1.77-0.51,2.75-1.31
	c2.98-2.44,4.88-5.86,7.66-8.5c1.31-1.24,2.36-2.76,4.49-2.79c7.98-0.1,15.96-0.03,23.94-0.02c1.36,0,2.38,0.27,1.69,1.99
	c-1.37,3.45,1.27,3.85,3.48,4.58c2.02,0.68,4.3-0.17,6.53,1.11c-3.08,5.44-5.7,10.8-13.39,10.87c-2.02,0.02-3.24,0.5-3.7,1.43
	c12.12,1.64,15.68-6.9,20.37-14.45C492.92,234.64,488.57,235.93,484.24,234.15z M448.33,8.39c0.24,0.11,0.48,0.24,0.69,0.4
	c0.08-0.13,0.16-0.27,0.24-0.4H448.33z M428.99,286.26c3-4.55,5.99-2.22,8.98,0C431.75,279.41,431.75,279.41,428.99,286.26z
	 M406.19,279.48c-5.23,0.3-8.4,3.96-12.11,6.78c3.4-0.88,5.86-3.56,9.08-4.8c5.78-2.24,7.8-1,7.88,4.8
	C414.1,279.43,413.77,279.06,406.19,279.48z M364.81,279.82c-2.74-1.13-5.47-0.06-7.56,2.23c-1.32,1.44-2.72,2.81-4.08,4.21
	c2.04-0.72,3.73-1.87,5.34-3.39c3.28-3.1,5.12-2.52,6.62,1.7c0.23,0.64,0.54,1.21,1.01,1.69
	C366.58,283.91,367.76,281.04,364.81,279.82z M313.95,264.86c7.29-4.54,12.04-10.72,16.89-18.33
	C323.26,249.73,315.13,258.73,313.95,264.86z M313.95,264.86c7.29-4.54,12.04-10.72,16.89-18.33
	C323.26,249.73,315.13,258.73,313.95,264.86z M313.95,264.86c7.29-4.54,12.04-10.72,16.89-18.33
	C323.26,249.73,315.13,258.73,313.95,264.86z M313.95,264.86c7.29-4.54,12.04-10.72,16.89-18.33
	C323.26,249.73,315.13,258.73,313.95,264.86z M313.95,264.86c7.29-4.54,12.04-10.72,16.89-18.33
	C323.26,249.73,315.13,258.73,313.95,264.86z M313.95,264.86c7.29-4.54,12.04-10.72,16.89-18.33
	C323.26,249.73,315.13,258.73,313.95,264.86z M313.95,264.86c7.29-4.54,12.04-10.72,16.89-18.33
	C323.26,249.73,315.13,258.73,313.95,264.86z M313.95,264.86c7.29-4.54,12.04-10.72,16.89-18.33
	C323.26,249.73,315.13,258.73,313.95,264.86z M313.95,264.86c7.29-4.54,12.04-10.72,16.89-18.33
	C323.26,249.73,315.13,258.73,313.95,264.86z M313.95,264.86c7.29-4.54,12.04-10.72,16.89-18.33
	C323.26,249.73,315.13,258.73,313.95,264.86z M313.95,264.86c7.29-4.54,12.04-10.72,16.89-18.33
	C323.26,249.73,315.13,258.73,313.95,264.86z M313.95,264.86c7.29-4.54,12.04-10.72,16.89-18.33
	C323.26,249.73,315.13,258.73,313.95,264.86z M313.95,264.86c7.29-4.54,12.04-10.72,16.89-18.33
	C323.26,249.73,315.13,258.73,313.95,264.86z M313.95,264.86c7.29-4.54,12.04-10.72,16.89-18.33
	C323.26,249.73,315.13,258.73,313.95,264.86z M313.95,264.86c7.29-4.54,12.04-10.72,16.89-18.33
	C323.26,249.73,315.13,258.73,313.95,264.86z M313.95,264.86c7.29-4.54,12.04-10.72,16.89-18.33
	C323.26,249.73,315.13,258.73,313.95,264.86z M313.95,264.86c7.29-4.54,12.04-10.72,16.89-18.33
	C323.26,249.73,315.13,258.73,313.95,264.86z M313.95,264.86c7.29-4.54,12.04-10.72,16.89-18.33
	C323.26,249.73,315.13,258.73,313.95,264.86z M313.95,264.86c7.29-4.54,12.04-10.72,16.89-18.33
	C323.26,249.73,315.13,258.73,313.95,264.86z M339.94,280.24c-1.09-1.63-2.83-0.49-4.07-0.01c-4.92,1.89-9.76,4-14.62,6.03
	c5.74-0.52,10.62-4.02,16.21-5.05c0.81,2.02-1.33,3.41-0.25,5.05c0.49-0.85,1.02-1.68,1.46-2.55
	C339.24,282.59,340.8,281.54,339.94,280.24z M281.53,90.03c7.49,3.87,13.41,7.75,19.09,11.96c5.65,4.19,10.75,8.89,13.1,17.42
	C315.98,100.9,304.1,93.72,281.53,90.03z M282.54,284.13c-1.21,1.04-3.22,0.59-4.19,2.13c3.68-0.85,7.26-1.89,10.41-4.12
	c2.97-2.09,5.92-1.84,8.61,0.5c2.04,1.78,4.48,2.66,6.92,3.62C297.66,279.23,290.55,277.22,282.54,284.13z M251.89,278.92
	c-1,3.23-1.84,5.16-1.48,7.34c1.35-3.49,3.19-4.39,5.95-1.22c0.5,0.57,1.45,0.66,2.03,1.22C256.4,284,254.4,281.75,251.89,278.92z
	 M230.48,280.04c-2.71-1.35-5.91-0.97-8.41,1.11c-1.61,1.33-3.11,2.91-3.58,5.11c2.09-1.08,3.24-3.25,5.21-4.47
	c3.31-2.05,5.34-1.34,6.62,2.33c0.28,0.79,0.54,1.54,1.14,2.14C231.92,284.04,232.96,281.27,230.48,280.04z M219.99,78.35
	c-27.43,1-54.87,0.56-82.3,0.28c-5.74-0.05-9.03,1.8-12.09,6.42c-22.78,34.4-45.82,68.63-68.69,102.97
	c-19.26,28.9-38.4,57.89-56.91,87.29c2.42,0.18,2.88-1.94,3.78-3.38c8.99-14.34,18.23-28.52,27.54-42.66
	c31.96-48.52,63.85-97.08,96.58-145.1c1.79-2.63,3.78-3.74,6.94-3.72c10.64,0.1,21.28,0.09,31.92,0.03
	c17.94-0.1,35.89,0.57,53.8-1.02c1.65-0.15,4.13,0.3,4.61-1.46C223.06,78.15,221.53,78.29,219.99,78.35z M185.57,286.26
	c0.97-0.57,1.62-1.49,2.46-2.34c-0.48,0.78-0.9,1.48-0.47,2.34c0.85-1.97,2.88-3.43,3.04-6.57
	C188.03,281.86,186.27,283.65,185.57,286.26z M149,279.21c-0.1-1.89,1.04-2.56,1.5-3.57c0.9-2.01,4.45-4.29,2.82-5.58
	c-2.27-1.78-6.02-0.91-8.76,1c-0.93,0.65-1.71,1.58-2.36,2.52c-2.87,4.2-5.68,8.45-8.51,12.68c3.78-2.65,5.7-6.82,8.38-10.35
	c1.63-2.14,3.19-4.29,5.98-4.97c0.96-0.23,2.09-0.55,2.8,0.33c0.81,1.01-0.25,1.8-0.7,2.61c-3.07,5.56-2.59,6.44,3.6,6.64
	c0.99,0.03,1.99,0.01,2.99,0.03c1.96,0.05,2.75,0.88,2.02,2.85c-0.35,0.92-0.72,1.88-0.13,2.86c1.08-2.08,2.16-4.17,3.66-7.05H149z
	 M127.61,247.55c3.7-5.37,7.43-10.72,11.41-16.46c-2.59-0.39-4.54-0.61-6.46-0.99c-1.48-0.29-3.19-0.74-3.44-2.44
	c-1.01-6.79-3.38-2.35-5.11-0.57c-1.61,1.65-2.95,3.58-4.25,5.5c-10.72,15.74-21.46,31.48-32.06,47.3
	c-1.83,2.74-3.92,4.97-6.89,6.37c3.7-0.52,6.04-2.72,8.06-5.78c8.28-12.59,16.62-25.14,25.07-37.62c3.35-4.93,6.8-9.8,10.46-14.5
	c0.7-0.91,2-2.86,2.96-1.08c1.91,3.58,5.38,3.99,8.65,4.94c-0.57,2.69-2.29,4.34-3.59,6.21c-8.18,11.86-16.57,23.57-24.53,35.58
	c-2.93,4.43-2.11,6.55,2.72,6.32c4.95-0.24,5.8,1.9,5.12,5.93c3.91-6.57,3.91-6.57-3.97-6.76c-0.16-0.01-0.33,0.01-0.49-0.01
	c-1.44-0.18-3.38,0.5-4.18-0.74c-0.96-1.48,0.92-2.6,1.68-3.74C114.99,265.82,121.31,256.69,127.61,247.55z"/>
<path class="st5" d="M487.66,236.43c-2.21-0.73-4.85-1.13-3.48-4.58c0.69-1.72-0.33-1.99-1.69-1.99
	c-7.98-0.01-15.96-0.08-23.94,0.02c-2.13,0.03-3.18,1.55-4.49,2.79c-2.78,2.64-4.68,6.06-7.66,8.5c-0.98,0.8-1.97,1.38-2.75,1.31
	c-0.24,0.27-0.49,0.55-0.73,0.83c0.06-0.36,0.12-0.7,0.17-1.02c1.16-7.08,0.86-7.08-5.87-7.14c-0.17,0-0.34-0.02-0.5,0
	c-3.03,0.39-4.52-0.36-3.13-3.76c0.36-0.89,1.08-2.91-0.44-2.89c-5.19,0.09-11.19-2.17-15.33,1.95c-4.59,4.56-9.62,5.16-15.76,4.47
	c0.81-1.44,1.42-2.75,2.24-3.93c0.99-1.41,1.27-2.67-0.94-2.46c-6.34,0.6-13.8-3.27-18.35,4.79c-1.24,2.19-3.99,2.15-6.36,1.59
	c-2.34-0.56-1.56-2.56-1.71-4.1c-0.09-0.93,0.2-1.87-1.08-2.43c-4.16-1.82-14.62,0.46-16.56,4.26c-2.29,4.48-4.87,4.54-8.41,1.81
	c-1.32-1.01-2.88-1.74-4.04-2.89c-3.06-3.02-6.72-3.79-10.89-3.96c-7.6-0.3-14.37,1.94-20.95,5.41c-4.11,2.17-8.51,3.58-12.34-0.49
	c-5.53-5.85-12.23-5.85-19.38-4.43c-5.12,1.02-9.6,3.59-14.32,5.61c-2.37,1.01-5.24,2.19-6.97,0.04
	c-4.71-5.85-11.11-5.08-17.35-5.34c-4.65-0.19-9.29-0.42-13.94-0.63c14.19-3.09,28.21-5.76,42.06-9.27
	c32.53-8.26,63.74-19.66,91.32-39.35c12.53-8.94,23.79-19.16,31.24-32.94c12.65-23.42,7.27-48.57-13.78-64.68
	c-15.96-12.22-33.34-21.67-52.74-27.24c-1.02-0.29-2.46-0.03-2.51-1.97c29.79,0,59.54,0.03,89.29-0.02
	c6.32-0.01,12.63-0.27,18.94-0.55c1.94-0.09,3.98-0.2,5.34-2.09c7.08-9.8,14.28-19.54,19.94-30.26c2.37-4.49,1.52-5.65-3.53-6.62
	c-1.65-0.31-4.48,0.54-4.63-1.79c-0.35-5.21-4.06-4.53-7.2-4.59c-17.78-0.3-35.57-0.63-53.36-0.64c-42.07-0.04-84.14-0.4-126.2,0.69
	c-3.25,0.08-5.98,0.44-8.12,3.56c-12.39,18.02-24.76,36.06-36.32,54.63c-1.48,2.37-2.79,4.89-3.88,7.46
	c-1.06,2.53-0.26,4.13,2.79,4.28c1.78,0.09,3.73-0.38,5.9,0.99c0.26,0.16,0.52,0.35,0.78,0.57c-0.3,0.02-0.59,0.04-0.87,0.06
	c-0.48,1.76-2.96,1.31-4.61,1.46c-17.91,1.59-35.86,0.92-53.8,1.02c-10.64,0.06-21.28,0.07-31.92-0.03
	c-3.16-0.02-5.15,1.09-6.94,3.72c-32.73,48.02-64.62,96.58-96.58,145.1c-9.31,14.14-18.55,28.32-27.54,42.66
	c-0.9,1.44-1.36,3.56-3.78,3.38v2.99c0.48,0.66,0.86,1.59,1.72,1.68c3.76,0.44,6.94,1.62,8.53,5.47c0.2,0.48,1.24,0.3,1.72,0.81
	h68.84c2.97-1.4,5.06-3.63,6.89-6.37c10.6-15.82,21.34-31.56,32.06-47.3c1.3-1.92,2.64-3.85,4.25-5.5c1.73-1.78,4.1-6.22,5.11,0.57
	c0.25,1.7,1.96,2.15,3.44,2.44c1.92,0.38,3.87,0.6,6.46,0.99c-3.98,5.74-7.71,11.09-11.41,16.46c-6.3,9.14-12.62,18.27-18.84,27.46
	c-0.76,1.14-2.64,2.26-1.68,3.74c0.8,1.24,2.74,0.56,4.18,0.74c0.16,0.02,0.33,0,0.49,0.01c7.88,0.19,7.88,0.19,3.97,6.76h17.96
	c2.83-4.23,5.64-8.48,8.51-12.68c0.65-0.94,1.43-1.87,2.36-2.52c2.74-1.91,6.49-2.78,8.76-1c1.63,1.29-1.92,3.57-2.82,5.58
	c-0.46,1.01-1.6,1.68-1.5,3.57h13.29c-1.5,2.88-2.58,4.97-3.66,7.05h26.94c0.7-2.61,2.46-4.4,5.03-6.57
	c-0.16,3.14-2.19,4.6-3.04,6.57h30.93c0.47-2.2,1.97-3.78,3.58-5.11c2.5-2.08,5.7-2.46,8.41-1.11c2.48,1.23,1.44,4,0.98,6.22h18.95
	c-0.36-2.18,0.48-4.11,1.48-7.34c2.51,2.83,4.51,5.08,6.5,7.34h19.96c0.97-1.54,2.98-1.09,4.19-2.13c8.01-6.91,15.12-4.9,21.75,2.13
	h16.96c4.86-2.03,9.7-4.14,14.62-6.03c1.24-0.48,2.98-1.62,4.07,0.01c0.86,1.3-0.7,2.35-1.27,3.47c-0.44,0.87-0.97,1.7-1.46,2.55
	h15.96c1.36-1.4,2.76-2.77,4.08-4.21c2.09-2.29,4.82-3.36,7.56-2.23c2.95,1.22,1.77,4.09,1.33,6.44h27.94
	c3.71-2.82,6.88-6.48,12.11-6.78c7.58-0.42,7.91-0.05,4.85,6.78h17.95c2.76-6.85,2.76-6.85,8.98,0h15.97
	c10.31-4.17,18.52-10.85,24.14-20.5c2.82-4.85,4.07-9.74-1.17-15.31c-0.23-0.25-0.48-0.5-0.75-0.76c0.32,0.06,0.63,0.1,0.94,0.15
	c0.46-0.93,1.68-1.41,3.7-1.43c7.69-0.07,10.31-5.43,13.39-10.87C491.96,236.26,489.68,237.11,487.66,236.43z M75.04,271.58
	c-2.18,3.18-4.46,4.71-8.4,4.84c-19.12,0.64-38.23,0.43-57.35,0.1c-2.13-0.03-4.27,0-7.21,0c19.5-29.52,38.54-58.46,57.68-87.32
	c22.95-34.58,45.98-69.11,68.98-103.67c1.27-1.9,2.26-3.62,5.27-3.58c33.91,0.41,67.84-0.6,101.72,1.44
	c14.33,0.86,28.37,3.34,41.83,8.52c5.77,2.23,11.23,5.06,15.8,9.3c9.28,8.61,9.89,20.29,1.51,30.17
	c-7.84,9.26-18.27,14.8-29.18,19.45c-26.28,11.2-54.14,15.79-82.28,18.96c-12.03,1.36-24.15,1.99-36.25,2.8
	c-3.77,0.25-6.34,1.68-8.6,4.86C116.64,208.33,96.43,240.35,75.04,271.58z M281.53,90.03c22.57,3.69,34.45,10.87,32.19,29.38
	c-2.35-8.53-7.45-13.23-13.1-17.42C294.94,97.78,289.02,93.9,281.53,90.03z M130.79,221.24c-2.82-0.08-5.62-0.55-8.88-0.88
	c6.39-11.82,13.33-22.53,20.01-33.41c2.85-4.62,6.45-6.08,11.34-6.35c17.1-0.96,34.14-2.5,51.11-4.82
	c24.26-3.31,48.24-7.83,71.09-17c9.61-3.86,18.76-8.56,26.66-15.36c2.26-1.94,4.45-4.02,6.36-6.3c14.32-17.01,11.3-35.08-7.78-46.48
	c-11.92-7.12-25.23-10.08-38.66-12.62c-14.19-2.69-28.63-3.37-43.37-5.19c13.06-21.18,26.55-41.61,40.79-61.57
	c1.44-2.02,3.09-2.53,5.44-2.53c53.04-0.07,106.08-0.21,159.12-0.34c7.68-0.01,15.35,0,24.31,0h0.93c-0.08,0.13-0.16,0.27-0.24,0.4
	c-7.16,11.94-13.81,22-20.97,31.76c-1.46,1.97-3.51,1.62-5.42,1.7c-20.6,0.87-41.22,0.7-61.84,0.82
	c-15.13,0.09-30.26,0.3-45.39,0.49c-1.66,0.02-3.31,0.2-4.97,0.28c-2.99,0.13-5.45,1.45-5.78,4.45c-0.35,3.19,2.88,3.34,4.92,3.81
	c13.99,3.19,27.6,7.64,40.65,13.47c13.77,6.15,26.57,13.91,33.81,28.03c6.36,12.4,6.39,25.44,1.43,38.01
	c-7.63,19.39-23,32.17-40.01,43.07c-30.39,19.48-64.17,30.25-99.12,37.89C208.22,220.89,169.6,222.38,130.79,221.24z M143.07,259.69
	c-7.75,0.05-12.93,2.19-15.96,9.27c-0.39,0.9-1.07,1.67-1.62,2.5c-4.52,6.77-5.04,6.96-14.31,4.85c3.88-5.74,7.61-11.33,11.41-16.88
	c5.9-8.61,11.92-17.14,17.72-25.82c1.46-2.18,3.01-3.11,5.66-2.98c6.46,0.32,12.96,0.12,19.4,0.59c7.02,0.51,9.01,4.06,5.52,10.4
	C164.92,252.5,155.72,259.61,143.07,259.69z M190.33,268.44c3.03,0.09,3.81,0.42,2.09,3.52c-2.14,3.86-4.53,5.71-9.29,5.4
	c-9.72-0.62-19.52,0.17-29.86-0.91c10.28-14.97,20.22-29.43,30.13-43.91c0.79-1.16,1.57-1.94,3.15-1.93
	c10.6,0.06,21.2,0.03,32.04,0.03c-2.55,8.06-3.52,8.81-10.62,8.81c-3.49,0.01-7.07,0.52-10.45-0.09
	c-7.56-1.35-10.64,3.05-13.21,9.61h20.25c-2.43,7.73-4,8.91-11.11,8.91c-2.66,0-5.39,0.4-7.96-0.08
	c-7.82-1.47-11.55,2.71-13.95,9.76C177.82,268.7,184.11,268.26,190.33,268.44z M238.55,260.24c0.12,4.13-0.38,8.28-0.25,12.41
	c0.1,3.08-0.62,4.33-4.06,4.36c-9.43,0.08-9.43,0.26-9.03-9.55c0-1.16,0.13-2.33-0.03-3.47c-0.24-1.66,1.39-4.15-0.61-4.81
	c-2.23-0.73-5.05-0.48-6.78,1.87c-3.04,4.13-6.04,8.29-8.99,12.49c-2.24,3.19-8.32,5.05-11.62,3.43c-2.27-1.11-0.41-2.24,0.16-3.09
	c3.28-4.98,6.67-9.89,10.04-14.8c5.81-8.47,11.72-16.87,17.38-25.44c1.57-2.36,3.26-3.22,6.05-3.09c6.96,0.33,13.96,0.05,20.89,0.61
	c7.32,0.6,9.1,4.62,5.06,10.85c-3.74,5.77-8.39,10.71-14.92,13.45C239.61,256.39,238.47,257.62,238.55,260.24z M275.9,246.41
	c2.66,1.35,5.44,2.44,8.1,3.78c4.87,2.46,5.79,5.23,3.52,10.11c-4.98,10.66-23.53,19.97-34.94,17.5c-3.34-0.73-5.84-2.61-6.53-6.04
	c-0.69-3.47,0.57-6.74,3.05-9.03c2.54-2.34,6-1.14,9.09-1.02c0.89,0.04,1.43,0.86,1.44,1.77c0.05,2.94,1.23,4.62,4.44,4.5
	c3.9-0.15,7.69-0.54,10.29-3.91c1.31-1.7,0.67-3.22-1.03-4.12c-2.34-1.23-4.77-2.29-7.22-3.29c-5.74-2.33-7.17-6.62-3.49-11.71
	c6.7-9.26,15.59-14.67,28.08-14.67c3.39,0.38,8.43-0.82,9.46,5.31c1.07,6.41-4.59,11.31-10.94,9.62c-0.98-0.26-2.05-0.54-2.05-1.77
	c0.01-3.3-2.09-3.73-4.67-3.6c-3.08,0.15-5.99,0.83-7.93,3.44C273.46,244.79,274.72,245.81,275.9,246.41z M303.85,277.7
	c-0.99,0.09-1.99,0.08-2.98,0.05c-9.62-0.35-13.37-5.69-9.57-14.52c5.78-13.46,15.81-23.09,28.81-29.66
	c4.48-2.26,9.26-3.61,14.26-3.19c3.99-0.21,7.74-0.37,10.37,3.43c1.73,2.48,2.42,4.82,1.62,7.86
	C341.89,258.72,321.41,276.17,303.85,277.7z M359.49,277.21c-1.64-0.77-0.72-1.98-0.67-3c0.29-6.57,0.65-13.14,0.99-19.7
	c-0.38-0.15-0.76-0.29-1.13-0.44c-3.7,5.26-7.96,10.22-10.93,15.86c-3.53,6.71-8.72,8.03-15.93,6.9c2.83-4.11,5.51-8.01,8.2-11.9
	c7.35-10.64,14.7-21.28,22.08-31.91c1.34-1.93,9.55-3.47,11.3-2.16c1.17,0.88,0.55,2.14,0.56,3.23c0.03,6.06,0.01,12.12,0.01,19.14
	c4.89-5.55,8.92-10.95,12.03-16.78c3.37-6.33,8.14-6.57,14.68-5.18c-2.01,3.01-3.76,5.72-5.58,8.38
	c-7.77,11.37-15.55,22.72-23.33,34.08C369.79,276.62,362.5,278.62,359.49,277.21z M412.11,277.37c-1.28-0.24-2.66-0.14-3.97-0.01
	c-2.84,0.3-4.03-0.37-2.71-3.45c1.16-2.7,1.95-5.56,2.95-8.51c-6.83-1.29-12.49-0.32-17.14,4.78c-4.9,5.37-10.65,8.78-16.41,7.16
	c6.3-7.02,13.01-14.96,20.25-22.39c6.59-6.78,13.71-13.04,20.69-19.43c1.82-1.66,3.83-3.27,6.03-4.32c2.79-1.33,6.29-1.16,8.65,0.24
	c1.57,0.93-0.53,3.87-1.11,5.85c-3.39,11.6-7.06,23.12-10.27,34.77C417.99,275.99,416.5,278.2,412.11,277.37z M480.24,234.99
	c-2.36,3.49-4.97,5.97-9.65,5.67c-3.11-0.2-6.29,0.28-9.42,0.65c-1.72,0.2-3.72,0.28-4.35,2.62c1.67,1.38,3.76,1.09,5.63,1.54
	c4.67,1.14,6.37,3.99,5.02,8.45c-3.56,11.72-20.65,24.19-32.85,23.97c-7.41-0.13-9.74-4.08-6.66-10.83c1.72-3.77,4.86-3.41,8-3.44
	c2.67-0.03,4.36,0.72,4.02,4c-0.19,1.76,1.48,2.16,2.85,1.49c5.06-2.49,9.04-6.23,11.4-11.35c1.35-2.95-0.52-3.32-3.04-2.95
	c-5.18,0.77-10.38,1.37-16.32,2.13c7.44-8.69,14.3-16.71,21.17-24.74c0.77-0.89,1.54-1.61,2.9-1.58c6.48,0.15,12.96,0.13,19.43,0.31
	C481.41,231.02,482.06,232.31,480.24,234.99z"/>
<path class="st4" d="M108.77,275.01c-0.76,1.14-2.64,2.26-1.68,3.74c0.8,1.24,2.74,0.56,4.18,0.74c0.16,0.02,0.33,0,0.49,0.01
	c7.88,0.19,7.88,0.19,3.97,6.76H80.81c2.97-1.4,5.06-3.63,6.89-6.37c10.6-15.82,21.34-31.56,32.06-47.3c1.3-1.92,2.64-3.85,4.25-5.5
	c1.73-1.78,4.1-6.22,5.11,0.57c0.25,1.7,1.96,2.15,3.44,2.44c1.92,0.38,3.87,0.6,6.46,0.99c-3.98,5.74-7.71,11.09-11.41,16.46
	C121.31,256.69,114.99,265.82,108.77,275.01z"/>
<path class="st4" d="M162.29,279.21c-1.5,2.88-2.58,4.97-3.66,7.05h-24.94c2.83-4.23,5.64-8.48,8.51-12.68
	c0.65-0.94,1.43-1.87,2.36-2.52c2.74-1.91,6.49-2.78,8.76-1c1.63,1.29-1.92,3.57-2.82,5.58c-0.46,1.01-1.6,1.68-1.5,3.57H162.29z"/>
<path class="st4" d="M304.29,286.26h-25.94c0.97-1.54,2.98-1.09,4.19-2.13C290.55,277.22,297.66,279.23,304.29,286.26z"/>
<path class="st4" d="M411.04,286.26h-16.96c3.71-2.82,6.88-6.48,12.11-6.78C413.77,279.06,414.1,279.43,411.04,286.26z"/>
<path class="st4" d="M231.46,286.26h-12.97c0.47-2.2,1.97-3.78,3.58-5.11c2.5-2.08,5.7-2.46,8.41-1.11
	C232.96,281.27,231.92,284.04,231.46,286.26z"/>
<path class="st4" d="M0,278.3"/>
<path class="st4" d="M338.67,283.71c-0.44,0.87-0.97,1.7-1.46,2.55h-15.96c4.86-2.03,9.7-4.14,14.62-6.03
	c1.24-0.48,2.98-1.62,4.07,0.01C340.8,281.54,339.24,282.59,338.67,283.71z"/>
<path class="st4" d="M366.14,286.26h-12.97c1.36-1.4,2.76-2.77,4.08-4.21c2.09-2.29,4.82-3.36,7.56-2.23
	C367.76,281.04,366.58,283.91,366.14,286.26z"/>
<path class="st4" d="M258.39,286.26h-7.98c-0.36-2.18,0.48-4.11,1.48-7.34C254.4,281.75,256.4,284,258.39,286.26z"/>
<path class="st4" d="M437.97,286.26h-8.98C431.75,279.41,431.75,279.41,437.97,286.26z"/>
<path class="st4" d="M190.6,279.69c-0.16,3.14-2.19,4.6-3.04,6.57h-1.99C186.27,283.65,188.03,281.86,190.6,279.69z"/>
<path class="st6" d="M449.02,8.79c-7.16,11.94-13.81,22-20.97,31.76c-1.46,1.97-3.51,1.62-5.42,1.7c-20.6,0.87-41.22,0.7-61.84,0.82
	c-15.13,0.09-30.26,0.3-45.39,0.49c-1.66,0.02-3.31,0.2-4.97,0.28c-2.99,0.13-5.45,1.45-5.78,4.45c-0.35,3.19,2.88,3.34,4.92,3.81
	c13.99,3.19,27.6,7.64,40.65,13.47c13.77,6.15,26.57,13.91,33.81,28.03c6.36,12.4,6.39,25.44,1.43,38.01
	c-7.63,19.39-23,32.17-40.01,43.07c-30.39,19.48-64.17,30.25-99.12,37.89c-38.11,8.32-76.73,9.81-115.54,8.67
	c-2.82-0.08-5.62-0.55-8.88-0.88c6.39-11.82,13.33-22.53,20.01-33.41c2.85-4.62,6.45-6.08,11.34-6.35
	c17.1-0.96,34.14-2.5,51.11-4.82c24.26-3.31,48.24-7.83,71.09-17c9.61-3.86,18.76-8.56,26.66-15.36c2.26-1.94,4.45-4.02,6.36-6.3
	c14.32-17.01,11.3-35.08-7.78-46.48c-11.92-7.12-25.23-10.08-38.66-12.62c-14.19-2.69-28.63-3.37-43.37-5.19
	c13.06-21.18,26.55-41.61,40.79-61.57c1.44-2.02,3.09-2.53,5.44-2.53c53.04-0.07,106.08-0.21,159.12-0.34c7.68-0.01,15.35,0,24.31,0
	C448.57,8.5,448.81,8.63,449.02,8.79z"/>
<path class="st4" d="M449.26,8.39c-0.08,0.13-0.16,0.27-0.24,0.4c-0.21-0.16-0.45-0.29-0.69-0.4H449.26z"/>
<path class="st6" d="M293.36,101.21c-4.57-4.24-10.03-7.07-15.8-9.3c-13.46-5.18-27.5-7.66-41.83-8.52
	c-33.88-2.04-67.81-1.03-101.72-1.44c-3.01-0.04-4,1.68-5.27,3.58c-23,34.56-46.03,69.09-68.98,103.67
	C40.62,218.06,21.58,247,2.08,276.52c2.94,0,5.08-0.03,7.21,0c19.12,0.33,38.23,0.54,57.35-0.1c3.94-0.13,6.22-1.66,8.4-4.84
	c21.39-31.23,41.6-63.25,63.52-94.13c2.26-3.18,4.83-4.61,8.6-4.86c12.1-0.81,24.22-1.44,36.25-2.8c28.14-3.17,56-7.76,82.28-18.96
	c10.91-4.65,21.34-10.19,29.18-19.45C303.25,121.5,302.64,109.82,293.36,101.21z M227.81,122.46c-2.83,3.14-6.34,5.35-10.14,7.08
	c-15.64,7.12-32.29,8.6-49.18,8.65c-2.94,0.01-3.43-1.05-1.93-3.57c5.98-9.97,12.36-19.67,19.51-28.84
	c4.05-5.18,9.77-2.76,14.23-3.12c8.13,0.36,15.62,0.67,22.83,2.89C233.17,108.65,234.81,114.68,227.81,122.46z"/>
<path class="st6" d="M400.68,231.27c-2.01,3.01-3.76,5.72-5.58,8.38c-7.77,11.37-15.55,22.72-23.33,34.08
	c-1.98,2.89-9.27,4.89-12.28,3.48c-1.64-0.77-0.72-1.98-0.67-3c0.29-6.57,0.65-13.14,0.99-19.7c-0.38-0.15-0.76-0.29-1.13-0.44
	c-3.7,5.26-7.96,10.22-10.93,15.86c-3.53,6.71-8.72,8.03-15.93,6.9c2.83-4.11,5.51-8.01,8.2-11.9c7.35-10.64,14.7-21.28,22.08-31.91
	c1.34-1.93,9.55-3.47,11.3-2.16c1.17,0.88,0.55,2.14,0.56,3.23c0.03,6.06,0.01,12.12,0.01,19.14c4.89-5.55,8.92-10.95,12.03-16.78
	C389.37,230.12,394.14,229.88,400.68,231.27z"/>
<path class="st6" d="M251.7,231.16c-6.93-0.56-13.93-0.28-20.89-0.61c-2.79-0.13-4.48,0.73-6.05,3.09
	c-5.66,8.57-11.57,16.97-17.38,25.44c-3.37,4.91-6.76,9.82-10.04,14.8c-0.57,0.85-2.43,1.98-0.16,3.09
	c3.3,1.62,9.38-0.24,11.62-3.43c2.95-4.2,5.95-8.36,8.99-12.49c1.73-2.35,4.55-2.6,6.78-1.87c2,0.66,0.37,3.15,0.61,4.81
	c0.16,1.14,0.03,2.31,0.03,3.47c-0.4,9.81-0.4,9.63,9.03,9.55c3.44-0.03,4.16-1.28,4.06-4.36c-0.13-4.13,0.37-8.28,0.25-12.41
	c-0.08-2.62,1.06-3.85,3.29-4.78c6.53-2.74,11.18-7.68,14.92-13.45C260.8,235.78,259.02,231.76,251.7,231.16z M243.85,244.74
	c-2.24,2.75-5.3,3.77-8.77,3.87c-2.78,0.09-5.55,0.33-8.96,0.54c5.28-9.61,7.44-10.74,15.92-9.39
	C245.92,240.38,245.92,242.19,243.85,244.74z"/>
<path class="st4" d="M330.84,246.53c-4.85,7.61-9.6,13.79-16.89,18.33C315.13,258.73,323.26,249.73,330.84,246.53z"/>
<path class="st6" d="M344.74,233.81c-2.63-3.8-6.38-3.64-10.37-3.43c-5-0.42-9.78,0.93-14.26,3.19c-13,6.57-23.03,16.2-28.81,29.66
	c-3.8,8.83-0.05,14.17,9.57,14.52c0.99,0.03,1.99,0.04,2.98-0.05c17.56-1.53,38.04-18.98,42.51-36.03
	C347.16,238.63,346.47,236.29,344.74,233.81z M332.09,248.26c-3.91,7.62-9.03,14.27-16.78,18.38c-2.16,1.15-4.62,1.73-6.2,2.31
	c-4.49,0.01-7.37-3.32-5.94-6.56c4.37-9.94,10.58-18.33,21.25-22.34c2.64-0.99,5.67-1.88,7.98,0.39
	C334.89,242.89,333.33,245.85,332.09,248.26z"/>
<path class="st6" d="M218.59,230.64c-2.55,8.06-3.52,8.81-10.62,8.81c-3.49,0.01-7.07,0.52-10.45-0.09
	c-7.56-1.35-10.64,3.05-13.21,9.61h20.25c-2.43,7.73-4,8.91-11.11,8.91c-2.66,0-5.39,0.4-7.96-0.08
	c-7.82-1.47-11.55,2.71-13.95,9.76c6.28,1.14,12.57,0.7,18.79,0.88c3.03,0.09,3.81,0.42,2.09,3.52c-2.14,3.86-4.53,5.71-9.29,5.4
	c-9.72-0.62-19.52,0.17-29.86-0.91c10.28-14.97,20.22-29.43,30.13-43.91c0.79-1.16,1.57-1.94,3.15-1.93
	C197.15,230.67,207.75,230.64,218.59,230.64z"/>
<path class="st6" d="M430.45,231.44c-2.36-1.4-5.86-1.57-8.65-0.24c-2.2,1.05-4.21,2.66-6.03,4.32
	c-6.98,6.39-14.1,12.65-20.69,19.43c-7.24,7.43-13.95,15.37-20.25,22.39c5.76,1.62,11.51-1.79,16.41-7.16
	c4.65-5.1,10.31-6.07,17.14-4.78c-1,2.95-1.79,5.81-2.95,8.51c-1.32,3.08-0.13,3.75,2.71,3.45c1.31-0.13,2.69-0.23,3.97,0.01
	c4.39,0.83,5.88-1.38,6.96-5.31c3.21-11.65,6.88-23.17,10.27-34.77C429.92,235.31,432.02,232.37,430.45,231.44z M407.03,255.33
	c1.44-2.54,3.32-4.29,5.94-5.9C413.05,253.65,412,256.2,407.03,255.33z"/>
<path class="st6" d="M289.22,245.21c-0.98-0.26-2.05-0.54-2.05-1.77c0.01-3.3-2.09-3.73-4.67-3.6c-3.08,0.15-5.99,0.83-7.93,3.44
	c-1.11,1.51,0.15,2.53,1.33,3.13c2.66,1.35,5.44,2.44,8.1,3.78c4.87,2.46,5.79,5.23,3.52,10.11c-4.98,10.66-23.53,19.97-34.94,17.5
	c-3.34-0.73-5.84-2.61-6.53-6.04c-0.69-3.47,0.57-6.74,3.05-9.03c2.54-2.34,6-1.14,9.09-1.02c0.89,0.04,1.43,0.86,1.44,1.77
	c0.05,2.94,1.23,4.62,4.44,4.5c3.9-0.15,7.69-0.54,10.29-3.91c1.31-1.7,0.67-3.22-1.03-4.12c-2.34-1.23-4.77-2.29-7.22-3.29
	c-5.74-2.33-7.17-6.62-3.49-11.71c6.7-9.26,15.59-14.67,28.08-14.67c3.39,0.38,8.43-0.82,9.46,5.31
	C301.23,242,295.57,246.9,289.22,245.21z"/>
<path class="st6" d="M165.37,231.22c-6.44-0.47-12.94-0.27-19.4-0.59c-2.65-0.13-4.2,0.8-5.66,2.98
	c-5.8,8.68-11.82,17.21-17.72,25.82c-3.8,5.55-7.53,11.14-11.41,16.88c9.27,2.11,9.79,1.92,14.31-4.85c0.55-0.83,1.23-1.6,1.62-2.5
	c3.03-7.08,8.21-9.22,15.96-9.27c12.65-0.08,21.85-7.19,27.82-18.07C174.38,235.28,172.39,231.73,165.37,231.22z M156.29,246.56
	c-3.7,3.98-8.64,4.53-13.68,4.61c-1,0.01-1.96-0.26-1.76-1.72c0.57-4.11,7.92-10.1,12.61-9.97c1.61,0.31,4.05-0.13,5,1.94
	C159.43,243.54,157.62,245.13,156.29,246.56z"/>
<path class="st6" d="M480.24,234.99c-2.36,3.49-4.97,5.97-9.65,5.67c-3.11-0.2-6.29,0.28-9.42,0.65c-1.72,0.2-3.72,0.28-4.35,2.62
	c1.67,1.38,3.76,1.09,5.63,1.54c4.67,1.14,6.37,3.99,5.02,8.45c-3.56,11.72-20.65,24.19-32.85,23.97
	c-7.41-0.13-9.74-4.08-6.66-10.83c1.72-3.77,4.86-3.41,8-3.44c2.67-0.03,4.36,0.72,4.02,4c-0.19,1.76,1.48,2.16,2.85,1.49
	c5.06-2.49,9.04-6.23,11.4-11.35c1.35-2.95-0.52-3.32-3.04-2.95c-5.18,0.77-10.38,1.37-16.32,2.13c7.44-8.69,14.3-16.71,21.17-24.74
	c0.77-0.89,1.54-1.61,2.9-1.58c6.48,0.15,12.96,0.13,19.43,0.31C481.41,231.02,482.06,232.31,480.24,234.99z"/>
<path class="st4" d="M313.72,119.41c-2.35-8.53-7.45-13.23-13.1-17.42c-5.68-4.21-11.6-8.09-19.09-11.96
	C304.1,93.72,315.98,100.9,313.72,119.41z"/>
<path class="st5" d="M223.13,105.55c-7.21-2.22-14.7-2.53-22.83-2.89c-4.46,0.36-10.18-2.06-14.23,3.12
	c-7.15,9.17-13.53,18.87-19.51,28.84c-1.5,2.52-1.01,3.58,1.93,3.57c16.89-0.05,33.54-1.53,49.18-8.65
	c3.8-1.73,7.31-3.94,10.14-7.08C234.81,114.68,233.17,108.65,223.13,105.55z M227.68,117.77c-1.97,3.16-4.48,5.72-7.71,7.56
	c-9.83,5.62-20.73,7.6-30.9,9.22c-3.49,0.35-4.22-0.42-2.6-2.88c3.9-5.93,7.76-11.89,11.49-17.92c1.05-1.7,2.32-2.05,4.11-1.94
	c7.78,0.47,15.55,0.93,23.34,1.28C229.28,113.26,229.48,114.88,227.68,117.77z"/>
<path class="st5" d="M243.85,244.74c-2.24,2.75-5.3,3.77-8.77,3.87c-2.78,0.09-5.55,0.33-8.96,0.54c5.28-9.61,7.44-10.74,15.92-9.39
	C245.92,240.38,245.92,242.19,243.85,244.74z"/>
<path class="st5" d="M332.4,240.44c-2.31-2.27-5.34-1.38-7.98-0.39c-10.67,4.01-16.88,12.4-21.25,22.34
	c-1.43,3.24,1.45,6.57,5.94,6.56c1.58-0.58,4.04-1.16,6.2-2.31c7.75-4.11,12.87-10.76,16.78-18.38
	C333.33,245.85,334.89,242.89,332.4,240.44z M313.95,264.86c1.18-6.13,9.31-15.13,16.89-18.33
	C325.99,254.14,321.24,260.32,313.95,264.86z"/>
<path class="st4" d="M330.84,246.53c-4.85,7.61-9.6,13.79-16.89,18.33C315.13,258.73,323.26,249.73,330.84,246.53z"/>
<path class="st5" d="M407.03,255.33c1.44-2.54,3.32-4.29,5.94-5.9C413.05,253.65,412,256.2,407.03,255.33z"/>
<path class="st5" d="M156.29,246.56c-3.7,3.98-8.64,4.53-13.68,4.61c-1,0.01-1.96-0.26-1.76-1.72c0.57-4.11,7.92-10.1,12.61-9.97
	c1.61,0.31,4.05-0.13,5,1.94C159.43,243.54,157.62,245.13,156.29,246.56z"/>
<path class="st4" d="M330.84,246.53c-4.85,7.61-9.6,13.79-16.89,18.33C315.13,258.73,323.26,249.73,330.84,246.53z"/>
</svg>
