<?xml version="1.0" encoding="utf-8"?>
<!-- Generator: Adobe Illustrator 26.1.0, SVG Export Plug-In . SVG Version: 6.00 Build 0)  -->
<svg version="1.1" id="Layer_1" xmlns="http://www.w3.org/2000/svg" xmlns:xlink="http://www.w3.org/1999/xlink" x="0px" y="0px"
	 viewBox="0 0 148.57 55.71" style="enable-background:new 0 0 148.57 55.71;" xml:space="preserve">
<style type="text/css">
	.st0{fill:#231F20;}
	.st1{fill:#FFFFFF;}
	.st2{font-family:'Georgia';}
	.st3{font-size:49.8591px;}
	.st4{font-family:'Corbel';}
	.st5{font-size:40.0548px;}
	.st6{fill:#FFFFFF;stroke:#231F20;stroke-width:0.25;stroke-miterlimit:10;}
	.st7{fill:#FFFFFF;stroke:#FFFFFF;stroke-width:2;stroke-miterlimit:10;}
</style>
<path class="st0" d="M7.35,0c0,0,30.97,2.71,33.58,6.48c2.61,3.77,0.68,7.94,2.9,8.52s24.1,3.29,24.1,3.29l7.59-7.86l18.44,5.51
	l4.85-0.36l17.7-1.84c0,0,3.29,1.55,4.65,3.48c1.35,1.94,2.52,5.32,2.52,5.32l8.52-8.9l13.35,9.48c0,0,3.97,3.26,2.81,5.79
	c-1.16,2.53-13.94,25.76-13.94,25.76l-17.41-9.16l-12.3,6.45l-14.13,0.68l-4.45-6.39l-45.77,6c0,0-1.28,2.09-5.04,3.37
	S0,44.03,0,44.03l1.88-7.65c0,0,3.63,1.65,4.7-0.19c1.06-1.84,6.58-23.23,5.13-24.77S5.13,6.58,5.13,6.58L7.35,0z"/>
<polyline class="st1" points="44.34,19.66 71.4,22.71 67.94,45.61 41.66,50.07 "/>
<text transform="matrix(1.1577 0.2312 -0.1958 0.9806 1.883 39.6908)" class="st1 st2 st3">B</text>
<text transform="matrix(0.9038 -0.0753 0.083 0.9965 46.7982 44.929)" class="st0 st4 st5">u</text>
<path class="st6" d="M68.68,33.6l-2.97,0.25l-0.17-2.03l7.87-0.66l0.97,13.26l-5.1,0.51L68.68,33.6z M67.13,30.46l-0.24-2.86
	l5.16-0.21l0.17,2.85L67.13,30.46z"/>
<g>
	<path class="st1" d="M81.32,32.72l6.45,0.5c0.71,0.05,1.3,0.08,1.78,0.07c0.48-0.01,0.89-0.05,1.23-0.12
		c0.34-0.07,0.66-0.18,0.94-0.33s0.56-0.35,0.83-0.61c0.27-0.26,0.53-0.59,0.78-0.99c0.25-0.4,0.58-1.01,0.97-1.83l2.49,0.19
		l-0.92,5.53l-22.12-1.72l0.05-0.68c1.03-0.07,1.72-0.18,2.08-0.33c0.36-0.15,0.6-0.39,0.74-0.72c0.13-0.32,0.23-0.83,0.28-1.51
		l0.93-11.97c0.05-0.64,0.04-1.1-0.01-1.4c-0.06-0.3-0.18-0.53-0.35-0.71c-0.18-0.18-0.42-0.33-0.72-0.45
		c-0.3-0.12-0.83-0.27-1.57-0.45l0.05-0.68l10.36,0.8L85.52,16c-0.73,0.05-1.25,0.11-1.56,0.18c-0.31,0.06-0.57,0.16-0.78,0.29
		c-0.21,0.13-0.37,0.35-0.5,0.64c-0.12,0.3-0.21,0.78-0.26,1.44L81.32,32.72z"/>
</g>
<path class="st1" d="M96.39,19.91l1.8,14.98c0,0-0.07,0.52-2.46,0.7c-6.53,0.5-5.78,7.28-5.44,9.66c0.34,2.37,2.03,5.35,4.95,4.83
	c2.91-0.52,4.47-2.29,4.47-2.29l0.25,1.93l2.29-0.15L98.71,19.6L96.39,19.91z M96.26,44.42l-0.96,3.52l-0.62-3.56l-2.56-0.07
	l2.17-2.13l-0.62-3.56l1.97,2.24l2.17-2.13l-0.96,3.52l1.97,2.25L96.26,44.42z"/>
<g>
	<path class="st7" d="M106.69,22.35l0.81,6.18c0.06,0.48,0.45,0.82,0.86,0.77l3.29-0.43c1.05-0.14,1.3-0.82,1.6-1.21
		c0.41-0.51,0.73-1.88,0.9-2.07c0.16-0.19,0.31-0.18,0.5-0.07c0.4,0.24,1.12,5.98,0.99,6.68c-0.09,0.46-0.16,0.58-0.36,0.51
		c-0.2-0.07-0.53-1.14-0.69-1.4c-0.21-0.32-0.45-0.86-0.85-1.01c-0.4-0.15-1.19-0.45-1.95-0.35l-3.29,0.43
		c-0.41,0.05-0.69,0.49-0.63,0.96l0.75,5.73c0.12,0.89,0.22,1.42,0.32,1.6c0.1,0.18,0.24,0.32,0.44,0.41
		c0.2,0.09,0.55,0.1,1.05,0.04l3.11-0.41c1.04-0.14,1.78-0.31,2.23-0.53c0.45-0.22,0.86-0.59,1.23-1.11c0.48-0.68,0.85-2.76,1.08-3
		s0.41-0.33,0.82-0.06c0.79,0.53-0.62,4.01-0.62,4.01c-0.06,0.36-0.71,1.42-1.22,1.47c0,0-12.61,2.43-13.09,2.14
		c-0.38-0.22-0.56-0.58-0.38-1s0.82-0.18,0.82-0.18c0.43-0.06,0.83-0.22,1.19-0.5c0.27-0.2,0.43-0.46,0.5-0.79
		c0.06-0.33,0.03-0.98-0.1-1.96l-1.71-13.01c-0.17-1.27-0.39-2.04-0.66-2.3c-0.38-0.35-0.52-0.45-1.34-0.44c0,0-0.32,0.09-0.96,0.1
		c-0.1,0-0.3-0.35-0.18-0.65c0.11-0.27,13.49-1.61,13.49-1.61c0.39-0.05,0.77,0.27,0.85,0.72c0,0,0.88,3.09,0.74,3.35
		c-0.08,0.16-0.33,0.39-0.64,0.26c-0.31-0.12-0.63-1.73-0.91-2.09c-0.28-0.36-0.66-0.62-1.14-0.77c-0.38-0.1-1.03-0.09-1.94,0.03
		l-4.29,0.56C106.91,21.44,106.63,21.87,106.69,22.35z"/>
</g>
<g>
	<path class="st1" d="M132.36,52.35l-2.71-1.76l0.88-8.49c0.09-0.79,0.12-1.48,0.11-2.08c-0.01-0.6-0.08-1.13-0.2-1.58
		c-0.12-0.46-0.31-0.85-0.57-1.19c-0.26-0.34-0.6-0.65-1.03-0.93l-1.87-1.21l-6.27,9.67l-2.28-1.48l14.74-22.74l5.8,3.76
		c0.85,0.55,1.55,1.18,2.11,1.9c0.56,0.71,0.94,1.5,1.14,2.35c0.2,0.85,0.2,1.75,0.01,2.7c-0.19,0.95-0.62,1.93-1.27,2.95
		c-0.51,0.79-1.09,1.46-1.72,1.98c-0.63,0.53-1.3,0.93-2.01,1.21c-0.71,0.28-1.45,0.42-2.21,0.45s-1.54-0.08-2.33-0.31l-0.04,0.06
		c0.22,0.38,0.37,0.76,0.47,1.13c0.1,0.37,0.16,0.78,0.19,1.21c0.02,0.44,0.02,0.91-0.01,1.42c-0.03,0.51-0.08,1.1-0.14,1.77
		L132.36,52.35z M133.88,24.46l-5.35,8.25l3.09,2c0.57,0.37,1.16,0.61,1.77,0.72s1.22,0.1,1.81-0.05c0.6-0.15,1.17-0.43,1.72-0.84
		c0.55-0.42,1.05-0.96,1.49-1.64c0.79-1.22,1.07-2.38,0.83-3.5s-0.98-2.09-2.26-2.92L133.88,24.46z"/>
</g>
</svg>
