<?xml version="1.0" encoding="utf-8"?>
<!-- Generator: Adobe Illustrator 26.1.0, SVG Export Plug-In . SVG Version: 6.00 Build 0)  -->
<svg version="1.1" id="Layer_2" xmlns="http://www.w3.org/2000/svg" xmlns:xlink="http://www.w3.org/1999/xlink" x="0px" y="0px"
	 viewBox="0 0 200.25 55.2" style="enable-background:new 0 0 200.25 55.2;" xml:space="preserve">
<style type="text/css">
	.st0{fill:none;stroke:#FFFFFF;stroke-miterlimit:10;}
	.st1{fill:#231F20;}
	.st2{fill:#FFFFFF;stroke:#FFFFFF;stroke-width:0.5;stroke-miterlimit:10;}
	.st3{fill:#231F20;stroke:#FFFFFF;stroke-width:0.5;stroke-miterlimit:10;}
</style>
<path class="st0" d="M76.88,37.52L74.8,42.6l5.47,2.37L76.88,37.52z"/>
<path class="st1" d="M186.58,5.01l-16.91,10.58l-7.48-1.68l-4.26,1.94l-10.06-3.87l-6.58-0.91c0,0-3.93-3.26-9.8-3.64
	c-5.23-0.35-11.24,4.55-11.24,4.55l-20.12,0.38L74.06,7.98l-11.87,6.96l-3.07-1.13c0,0-0.84-6.49-5.95-10.35
	c-9.26-7-25.48-1.2-25.48-1.2L0,10.94c0,0,1.16,11.1,1.55,13.04c0.38,1.93,6.19,0,6.19,0l7.1,16.77v3.74L12,48.24l8,6.96l40.13-7.09
	l29.29,5.16l7.87-2.58l18.06-0.39h4.85c0,0,3.94,1.42,10.55,1.42c15.73,0,18.54-4.13,18.54-4.13l10.84,4.13l6.45-3.61l5.03,1.67
	l5.68-1.67l4.38,0.9l2.46,2.71l16.12,2.19V7.98L186.58,5.01z M20.29,46.15l-1.41-2.9l3.1-1.5l-8.13-25.6h-3.39l-0.48-2.08
	l24.48-7.64c0,0,11.61-2.63,14.18,5.27c3.24,9.97-5.95,12.97-5.95,12.97l-11.27,3.54l3.24,9.96l2.8-1.02l0.83,2.33L20.29,46.15z
	 M52.6,42.12c-8.81,0-10.42-5.55-10.42-5.55v-8.9c0,0,1-2.2,4.22-3.84c3.23-1.65,6.52-1.4,6.52-1.4s6.29-0.44,8.85,2.75
	c2.57,3.2,2.13,7.89,2.13,7.89H49.73c0,0-0.25,7.36,4.93,6.68c5.18-0.68,6.03-2.86,6.03-2.86H62C62,36.89,61.4,42.12,52.6,42.12z
	 M74.8,42.6l2.08-5.08l3.39,7.45L74.8,42.6z M81.49,31.21l-4.22-1.33l1.84-6.24l3.55,0.95c0,0,3.64,0.74,2.82,4.08
	C84.58,32.35,81.49,31.21,81.49,31.21z M92.61,47.83l-3.78-0.1l-5.27-12.05c0,0,6.72,0.27,8.42-4.9c2.19-6.68-4.07-9.03-4.07-9.03
	l-13.26-3.87l-5.66,23.37l-5.27-1.84l4.4-19.36l6.2-5.12l22.74,5.51L92.61,47.83z M106.4,39.8h-8.86l0.1-6.68h0.63
	c0,0,1.48,5.67,8.17,5.56c1.54-0.02,2.63-0.23,3.41-0.54c1.69-0.66,2.07-2.93,0.74-4.16c-0.96-0.87-2.65-1.82-5.6-2.02
	c-5.71-0.39-7.45-4.6-7.45-4.6s-0.89-4.05,5.2-4.45c1.48-0.1,3.59-0.22,4.94-0.27c4.24-0.16,7.23-0.41,7.23-0.41l0.92,5.81
	c0,0-1.44-1.63-2.66-2.76c-1.53-1.42-3.69-1.11-3.69-1.11l-4.78,0.34c0,0-1.98,0.15-2.68,1.96c-1.94,5,15.31,3.55,15.26,8.58
	C117.24,40.09,106.4,39.8,106.4,39.8z M142.69,29.88c-0.49,16.21-13.39,14.09-13.39,14.09s-11.36-0.93-11.44-14.43
	c-0.08-14.23,11.73-14.08,11.73-14.08S143.17,13.67,142.69,29.88z M168.65,25.79l-3.96,18.67c0,0-0.52,1.77-1.62,1.45
	c-0.65-0.19-1.52-0.68-2.47-2.07c-1.55-2.27-6.96-13.67-7.35-12.66c-0.2,0.51-2.36,7.91-2.36,7.91s1.07,0.65,0.55,1.94
	c-0.51,1.29-3.43,0.58-3.43,0.58s-3.43-0.7-3.32-2.09c0.13-1.61,1.73-1.62,1.73-1.62l3.72-15.25c0,0-2.68-0.29-2.45-2.13
	c0.07-0.62,0.19-1.05,0.32-1.35c0.17-0.39,0.57-0.63,0.99-0.66l5.09,1.02c0.64,0.13,1.2,0.51,1.54,1.06
	c1.48,2.34,5.46,8.64,5.76,8.94c0.43,0.43,1.18,0.32,1.42-0.24c0.61-1.38,0.59-4.11,0.59-4.11s-0.81-0.43-0.81-1.79
	c0-0.19,0.01-0.36,0.02-0.52c0.08-0.85,0.73-1.53,1.58-1.66c1.8-0.27,6.07,0.04,6.2,2.09C170.56,25.9,168.65,25.79,168.65,25.79z
	 M188.85,44.49l-0.49-7.79l-7.06-2.37l-4.94,7.74l-6.67-2.42l18.77-31.84l7.45,1.36l0.39,37.16L188.85,44.49z"/>
<path class="st2" d="M48.64,11.7c-2.57-7.9-14.18-5.27-14.18-5.27L9.98,14.07l0.48,2.08h3.39l8.13,25.6l-3.1,1.5l1.41,2.9l18-6.67
	l-0.83-2.33l-2.8,1.02l-3.24-9.96l11.27-3.54C42.69,24.67,51.88,21.67,48.64,11.7z M30.21,24.82l-4.16-12.54
	c0,0,9.86-5.01,12.14,3.49C40.53,24.49,30.21,24.82,30.21,24.82z"/>
<path class="st3" d="M30.21,24.82l-4.16-12.54c0,0,9.86-5.01,12.14,3.49C40.53,24.49,30.21,24.82,30.21,24.82z"/>
<path class="st2" d="M63.9,33.07c0,0,0.44-4.69-2.13-7.89c-2.56-3.19-8.85-2.75-8.85-2.75s-3.29-0.25-6.52,1.4
	c-3.22,1.64-4.22,3.84-4.22,3.84v8.9c0,0,1.61,5.55,10.42,5.55c8.8,0,9.4-5.23,9.4-5.23h-1.31c0,0-0.85,2.18-6.03,2.86
	c-5.18,0.68-4.93-6.68-4.93-6.68H63.9z M49.11,31.04c0,0-0.81-6.42,3.96-6.49c4.78-0.09,3.94,6.49,3.94,6.49H49.11z"/>
<path class="st3" d="M57.01,31.04h-7.9c0,0-0.81-6.42,3.96-6.49C57.85,24.46,57.01,31.04,57.01,31.04z"/>
<path class="st2" d="M97.06,20.44l-4.45,27.39l-3.78-0.1l-5.27-12.05c0,0,6.72,0.27,8.42-4.9c2.19-6.68-4.07-9.03-4.07-9.03
	l-13.26-3.87l-5.66,23.37l-5.27-1.84l4.4-19.36l6.2-5.12L97.06,20.44z"/>
<polygon class="st2" points="80.27,44.97 74.8,42.6 76.88,37.52 "/>
<path class="st2" d="M85.48,28.67c-0.9,3.68-3.99,2.54-3.99,2.54l-4.22-1.33l1.84-6.24l3.55,0.95
	C82.66,24.59,86.3,25.33,85.48,28.67z"/>
<path class="st2" d="M117.28,35.05c-0.04,5.04-10.88,4.75-10.88,4.75h-8.86l0.1-6.68h0.63c0,0,1.48,5.67,8.17,5.56
	c1.54-0.02,2.63-0.23,3.41-0.54c1.69-0.66,2.07-2.93,0.74-4.16c-0.96-0.87-2.65-1.82-5.6-2.02c-5.71-0.39-7.45-4.6-7.45-4.6
	s-0.89-4.05,5.2-4.45c1.48-0.1,3.59-0.22,4.94-0.27c4.24-0.16,7.23-0.41,7.23-0.41l0.92,5.81c0,0-1.44-1.63-2.66-2.76
	c-1.53-1.42-3.69-1.11-3.69-1.11l-4.78,0.34c0,0-1.98,0.15-2.68,1.96C100.08,31.47,117.33,30.02,117.28,35.05z"/>
<path class="st2" d="M129.59,15.46c0,0-11.81-0.15-11.73,14.08c0.08,13.5,11.44,14.43,11.44,14.43s12.9,2.12,13.39-14.09
	C143.17,13.67,129.59,15.46,129.59,15.46z M134.03,31.72c-0.15,2.23-0.71,3.83-1.43,4.99c-1.97,3.16-6.56,3.31-8.93,0.44
	c-1.01-1.23-1.82-3.05-1.89-5.72c-0.11-4.39,2.11-6.27,4.02-7.09c1.66-0.71,3.59-0.69,5.16,0.23
	C132.56,25.51,134.29,27.51,134.03,31.72z"/>
<path class="st3" d="M134.03,31.72c-0.15,2.23-0.71,3.83-1.43,4.99c-1.97,3.16-6.56,3.31-8.93,0.44c-1.01-1.23-1.82-3.05-1.89-5.72
	c-0.11-4.39,2.11-6.27,4.02-7.09c1.66-0.71,3.59-0.69,5.16,0.23C132.56,25.51,134.29,27.51,134.03,31.72z"/>
<path class="st2" d="M168.65,25.79l-3.96,18.67c0,0-0.52,1.77-1.62,1.45c-0.65-0.19-1.52-0.68-2.47-2.07
	c-1.55-2.27-6.96-13.67-7.35-12.66c-0.2,0.51-2.36,7.91-2.36,7.91s1.07,0.65,0.55,1.94c-0.51,1.29-3.43,0.58-3.43,0.58
	s-3.43-0.7-3.32-2.09c0.13-1.61,1.73-1.62,1.73-1.62l3.72-15.25c0,0-2.68-0.29-2.45-2.13c0.07-0.62,0.19-1.05,0.32-1.35
	c0.17-0.39,0.57-0.63,0.99-0.66l5.09,1.02c0.64,0.13,1.2,0.51,1.54,1.06c1.48,2.34,5.46,8.64,5.76,8.94
	c0.43,0.43,1.18,0.32,1.42-0.24c0.61-1.38,0.59-4.11,0.59-4.11s-0.81-0.43-0.81-1.79c0-0.19,0.01-0.36,0.02-0.52
	c0.08-0.85,0.73-1.53,1.58-1.66c1.8-0.27,6.07,0.04,6.2,2.09C170.56,25.9,168.65,25.79,168.65,25.79z"/>
<path class="st2" d="M195.91,9.17l-7.45-1.36l-18.77,31.84l6.67,2.42l4.94-7.74l7.06,2.37l0.49,7.79l7.45,1.84L195.91,9.17z
	 M184.59,28.72l3.87-6.39l0.19,7.64L184.59,28.72z"/>
<polygon class="st3" points="188.65,29.97 184.59,28.72 188.46,22.33 "/>
</svg>
