<?xml version="1.0" encoding="utf-8"?>
<!-- Generator: Adobe Illustrator 26.1.0, SVG Export Plug-In . SVG Version: 6.00 Build 0)  -->
<svg version="1.1" id="Layer_1" xmlns="http://www.w3.org/2000/svg" xmlns:xlink="http://www.w3.org/1999/xlink" x="0px" y="0px"
	 viewBox="0 0 404.19 183.74" style="enable-background:new 0 0 404.19 183.74;" xml:space="preserve">
<style type="text/css">
	.st0{fill:#231F20;}
	.st1{fill:#FFFFFF;}
	.st2{fill:#231F20;stroke:#FFFFFF;stroke-width:2;stroke-miterlimit:10;}
	.st3{fill:#FFFFFF;stroke:#FFFFFF;stroke-width:0.5;stroke-miterlimit:10;}
	.st4{fill:none;}
</style>
<path class="st0" d="M1.55,22.45L103.26,5.94l7.2,32.26c0,0,1.29-6.19,16.77-4.9c15.48,1.29,21.94,10.84,21.94,10.84l16.52-36.9
	L265.81,0l4.39,55.48l44.68,9.55c0,0,11.84-24.39,43.06-18.13s50.58,35.61,45.42,58.35c-5.16,22.75-21.68,42.1-39.48,44.94
	c-17.81,2.84-42.26-3.1-49-6.45c-6.74-3.35-83.13-7.08-83.13-7.08l-17.55,47.08L123,124.65c0,0-6.87,4.96-22.62,4.29
	c-15.74-0.67-39.23,7.73-39.23,7.73L36.13,51.35L0,52.9L1.55,22.45z"/>
<polygon class="st1" points="169.61,13.51 139.23,130.52 209.1,174.26 254.19,10.71 "/>
<polygon class="st1" points="12.73,28.2 15.92,47.55 50.55,41.85 64.9,128.93 87.82,125.15 73.43,37.82 105.03,32.61 101.88,13.51 
	"/>
<g>
	<path class="st2" d="M174.95,36.17c4.84,0.48,12.2,2.07,19.43,4.45c10.32,3.39,16.34,7.44,19.94,13.31c3.09,4.6,3.95,10.4,1.78,17
		c-2.66,8.09-10.08,13.52-19.57,13.99l-0.08,0.25c6.94,4.48,13.66,14,9.58,26.46c-2.37,7.22-6.9,11.8-12.28,14.59
		c-7.33,3.52-17.17,3.05-30.21-1.23c-7.12-2.34-12.4-4.62-15.69-6.25L174.95,36.17z M174,73.92l9.37,3.07
		c10.91,3.58,19.28-0.29,21.93-8.39c3.23-9.84-2.62-16.03-13.05-19.46c-4.75-1.56-7.6-2.08-9.38-2.25L174,73.92z M160.79,114.15
		c1.9,1.04,4.82,2.13,8.49,3.34c10.68,3.51,21.87,2.63,25.88-9.58c3.76-11.45-4.05-19.26-15.32-22.96l-8.54-2.8L160.79,114.15z"/>
</g>
<path class="st1" d="M314.87,115.12l-4.14,21.54l-80.38-7.06l0.89-5.31l8.56,0.51l5.36-47.37l-7.41-0.83l0.77-2.76l49,2.92v4.38
	l-12.64-0.54l-5.4,42.31c-0.29,2.36,1.62,4.57,4.53,5.11c3.72,0.7,9.69,0.98,18.37-0.76c16.75-3.38,16.47-12.21,16.47-12.21
	L314.87,115.12z"/>
<path class="st3" d="M388,109.12c0,0,5.16-15.78-0.9-28.73c-6.03-12.92-27.37-16.21-27.37-16.21s-10.78-3.37-22.86-0.18
	c-12.04,3.17-17.1,9.97-17.1,9.97l-7.01,30.57c0,0,1,20.3,30.4,27.03c29.36,6.73,35.48-10.78,35.48-10.78l-4.37-1
	c0,0-4.55,6.84-22.37,5.21c-17.82-1.62-11.19-26.72-11.19-26.72L388,109.12z M340.25,90.84c0,0,2.35-22.67,18.32-19.27
	c16.02,3.35,8.04,25.31,8.04,25.31L340.25,90.84z"/>
<g>
	<path class="st1" d="M118.13,63.27C94.6,60.18,87.37,69.1,87.37,69.1l20.71,2.72c0.76-1.82,3.89-2.44,9.21-1.74
		c5.3,0.69,7,2.98,6.71,5.29c-0.29,2.32-1.41,4.1-13.09,2.57c-11.68-1.53-25.88,2.79-26.89,10.91s5.99,15.51,18.9,17.19
		c12.92,1.69,17.76-1.06,17.76-1.06l-0.6,3.31l20.53,2.69l4.43-35.64C145.04,75.32,141.67,66.33,118.13,63.27z M121.48,98.45
		c-6.09-0.2-19.13-0.87-18.18-8.56c0.96-7.67,19.7-3.61,19.7-3.61L121.48,98.45z"/>
	<path class="st4" d="M123,86.28l-1.52,12.17c-6.09-0.2-19.13-0.87-18.18-8.56C104.26,82.22,123,86.28,123,86.28z"/>
	<path class="st4" d="M123,86.28l-1.52,12.17c-6.09-0.2-19.13-0.87-18.18-8.56C104.26,82.22,123,86.28,123,86.28z"/>
</g>
</svg>
